<?xml version="1.0" encoding="utf-8"?>
<!-- Generator: Adobe Illustrator 18.0.0, SVG Export Plug-In . SVG Version: 6.00 Build 0)  -->
<!DOCTYPE svg PUBLIC "-//W3C//DTD SVG 1.1//EN" "http://www.w3.org/Graphics/SVG/1.1/DTD/svg11.dtd">
<svg version="1.1" id="图层_1" xmlns="http://www.w3.org/2000/svg" xmlns:xlink="http://www.w3.org/1999/xlink" x="0px" y="0px"
	 viewBox="0 0 150 150" enable-background="new 0 0 150 150" xml:space="preserve">
<g>
	<g>
		<rect x="76.2" y="20.7" fill="#A9976D" width="0" height="0"/>
		<path fill="#A9976D" d="M37.7,35.8c0.5,0.3,1.2,0.5,0.5,1.3c0.3-0.2,0.4-0.2,0.4-0.2c0.3,0.2,0.6,0.4,0.8,0.5c0-0.5,0-0.9,0-1.3
			c0-0.4,0.3-0.9-0.1-1.3c0,0,0-0.3,0.1-0.5c0.2-0.3,0.1-0.8,0-1.3c0-0.2-0.3-0.3-0.4-0.4C39,32.5,39,32.4,39,32.4
			c0.2-0.2,0.4-0.3,0.6-0.4c-0.2-0.1-0.3-0.2-0.4-0.3c0.1-0.2,0.3-0.5,0.3-0.7c0-0.2-0.1-0.4-0.2-0.6c0,0,0.1,0,0.1,0c0,0,0,0,0,0
			c0,0,0,0,0,0c-0.1-0.1-0.2-0.1-0.3-0.2c0,0,0.1-0.2,0.1-0.2c0.2-0.1,0.2-0.2,0.1-0.4c-0.1-0.1-0.1-0.3-0.2-0.5c0,0,0.1,0,0.1,0
			c0.1,0.1,0.1,0.2,0.2,0.3c0-0.4,0-0.8,0-1.2c-0.2,0-0.4,0-0.6,0c0-0.3,0-0.6,0-0.8c0.1,0.1,0.2,0.2,0.2,0.2
			c0.1,0.1,0.1,0.1,0.2,0.2c0.1-0.1,0.1-0.2,0.2-0.3c-0.4,0.1-0.6-0.2-0.5-0.8c0.1,0,0.3,0,0.4,0c0-0.2,0-0.4,0-0.5
			c0-0.2-0.1-0.4-0.2-0.5c-0.1-0.1-0.3-0.2-0.6-0.3v0l0,0c0-0.1,0-0.3,0-0.5c0.2-0.1,0.3-0.1,0.6-0.3c-0.2-0.3-0.3-0.5-0.5-0.7
			c0.2,0,0.4,0,0.5,0c0.1,0.3,0.2,0.6,0.3,0.9c-0.1,0-0.2,0-0.4,0.1c0.2,0.1,0.3,0.2,0.4,0.2c0.1,0,0.2-0.1,0.2-0.2
			c0.1-0.3,0.1-0.7,0.4-1c0.4-0.5,0.9-1,1.5-1.3c0.1,0,0.2-0.1,0.2-0.2c-0.3-0.2-0.6-0.3-0.3-0.8c0.4,0.2,0.6,0.2,0.7-0.2
			c0.2,0,0.4,0.1,0.7,0.1c0,0.2,0.1,0.3,0.1,0.6c0.2-0.2,0.3-0.3,0.5-0.4c0.2-0.1,0.5-0.1,0.5-0.1c0.2,0.4,0.5,0.3,0.8,0.3
			c0.8,0,1.5,0,2.3,0c0.4,0,0.8,0.1,0.5-0.6c0-0.1,0.1-0.3,0.2-0.4c0.1,0.1,0.3,0.2,0.3,0.2c-0.1,0.6,0.4,0.6,0.8,0.7
			c0.7,0.2,1.2,0,1.6-0.6c0.3,0.8,0.9,0.7,1.6,0.6c0-0.3,0.1-0.5,0.5-0.4c0.2,0.1,0.5,0,0.7,0c0.1,0,0.3,0,0.3,0.1
			c0.1,0.5,0.3,0.2,0.5,0.1c0.2-0.1,0.3-0.3,0.5-0.4c0.1,0.2,0.3,0.3,0.4,0.5c0-0.2,0.1-0.4,0.1-0.6c0.8,0.1,0.9,0.2,1.1,0.7
			c0.9,0,1.8,0,2.4-1c0,0.3,0,0.7,0,1.1c0.2-0.2,0.4-0.3,0.5-0.4c0.1-0.1,0.2-0.1,0.3-0.1c0.3,0,0.6,0,1,0c0,0,0,0.2,0,0.3
			c0.3,0.1,0.6,0.1,0.8-0.2c0.1-0.1,0.2-0.2,0.3-0.3c0.1,0.2,0.2,0.3,0.3,0.5c0.2,0,0.4,0,0.6,0c0,0,0,0,0-0.1c-0.1,0-0.3,0-0.4-0.1
			c0-0.1,0-0.2,0-0.3c0-0.1,0-0.2,0-0.3c0.1,0,0.3,0,0.4,0.1c0.1,0.1,0.1,0.4,0.2,0.5c0.2,0.1,0.5,0,0.7,0c-0.1-0.2-0.1-0.4-0.2-0.6
			c0.3-0.1,0.3-0.1,0.4,0.3c0.2,0.9,0.8,0.3,1.2,0.4c0,0,0.2-0.3,0.3-0.4c0.2,0,0.5,0,0.8,0c-0.1,0.2-0.1,0.4-0.1,0.5
			c0,0,0.1,0,0.1,0c0-0.1,0-0.2,0.1-0.2c0.2,0,0.4,0,0.7-0.1c0.2,0.5,0.4,0.2,0.7,0.1c0.4-0.2,0.8-0.3,1.2-0.4
			c0,0.1,0.1,0.2,0.1,0.2c-0.1,0.1-0.2,0.1-0.3,0.2c0.5,0.5,0.7-0.2,1-0.4c0.1,0.2,0.3,0.3,0.4,0.5c0.1-0.1,0.2-0.3,0.3-0.4
			c0.1,0.1,0.3,0.2,0.5,0.3c0.1-0.1,0.3-0.2,0.5-0.4c-0.1-0.1-0.1-0.1-0.2-0.2c-0.1,0-0.2-0.1-0.3-0.1c0.1-0.1,0.3-0.2,0.4-0.1
			c0.2,0.3,0.4,0.6,0.6,0.9c0.1,0,0.3-0.1,0.5-0.1c0.2-0.1,0.3-0.2,0.5-0.3c0.2,0.3,0.3,0.6,0.7,0.3c0,0,0.1,0,0.2,0
			c0.3,0,0.6,0,0.9,0c0.2,0,0.4,0,0.7,0c0,0,0.1-0.1,0.2-0.4c0,0.2,0.1,0.4,0.1,0.5c0.1-0.1,0.2-0.2,0.2-0.3c0,0.1,0.1,0.2,0.1,0.3
			c0.1-0.1,0.2-0.2,0.2-0.3c0.4,0.5,0.9,0.2,1.3,0.3c0-0.3-0.1-0.5-0.1-0.7c0.1,0,0.2,0,0.3,0c0,0.2,0,0.4,0,0.7c0,0,0.1,0,0.1,0
			c0.1-0.1,0.1-0.3,0.2-0.4c0,0,0.1,0,0.1,0c0,0.1,0,0.2,0,0.4c0.2,0,0.3,0,0.5,0c0.1-0.3,0.2-0.6,0.6-0.2c0.1,0,0.3-0.1,0.4-0.1
			c0,0,0,0,0-0.1c0.4,0,0.7-0.1,1.2-0.1c-0.1,0.2-0.2,0.4-0.3,0.6c0,0,0,0.1,0.1,0.1c0.3-0.1,0.6-0.3,0.9-0.4c0.1,0,0.2,0,0.3,0.1
			c0.1,0.1,0.3,0.2,0.4,0.2c0.3,0,0.6,0,0.7,0c0.1-0.2,0.2-0.5,0.3-0.5c0.2,0,0.4,0.2,0.6,0.3c0,0.1,0,0.1,0,0.2
			c0.1-0.1,0.1-0.2,0.1-0.2c0.1,0.1,0.2,0.2,0.3,0.2c0.4,0,0.8,0,1.2,0c0,0,0-0.1,0.1-0.1c0.3-0.1,0.5-0.3,0.8-0.4
			c0.1,0,0.2,0.1,0.3,0.2c0-0.2,0-0.4,0-0.6c0.2,0,0.4,0.1,0.5,0.1c0,0.2,0,0.5,0,0.8c0.3-0.1,0.5-0.2,0.7-0.2c0.3,0,0.8-0.1,0.8,0
			c0.2,0.4,0.3,0.1,0.5,0.2c0,0,0-0.1,0-0.1c-0.1-0.1-0.2-0.1-0.4-0.2c0-0.1,0.1-0.1,0.1-0.2c0.3,0.1,0.6,0.3,0.9,0.4
			c0-0.3,0.1-0.6,0-0.9c-0.2-0.5,0-0.4,0.2-0.4c0.1,0.3,0.3,0.6,0.3,0.9c0,0.6,0.3,0.4,0.6,0.4c0-0.3-0.1-0.5,0.1-0.6
			c0.2-0.2,0.6,0.1,0.8,0.7c0.4,0,0.7,0,1.1,0c0.5,0,1,0.1,1.2-0.5c0,0,0.1,0,0,0c0.2,0.2,0.3,0.3,0.4,0.5c0.1-0.1,0.2-0.2,0.4-0.4
			c0.1,0,0.2,0.1,0.3,0.1c0.3,0.2,0.7,0.5,1,0c0,0,0.2,0.1,0.3,0.1c0.3,0.1,0.6,0.4,0.9,0c0,0,0.2,0.1,0.2,0.1
			c0.1-0.1,0.2-0.2,0.3-0.3c0.1,0.1,0.2,0.2,0.3,0.3c0.1,0.1,0.1,0.1,0.2,0.1c0.4,0,0.9,0.1,1-0.5c0.6,0.7,1.2,0.7,1.5,0
			c0.1,0.5,0.5,0.5,0.9,0.5c0.5,0,1,0,1.5,0c0.3,0,0.6-0.2,0.9-0.3c0.1,0,0.3-0.2,0.3-0.1c0.3,0.4,0.6,0.3,1,0.2
			c0.1,0,0.3,0.1,0.5,0.1c0.2,0,0.4,0.1,0.5,0c0.2-0.4,0.5-0.3,0.8-0.1c0,0,0,0.1,0.1,0.1c-0.1,0-0.3,0.1-0.3,0.1
			c0.5,0.2,0.9,0.4,1.5,0.6c0.1,0.1,0.3,0.4,0.4,0.4c0.7-0.2,0.9,0.2,0.9,0.7c0.1,0,0.2-0.1,0.2-0.1c0.1,0.3,0.1,0.6,0.2,0.8
			c0.1,0.2,0.2,0.5,0.3,0.7c0.2,0,0.4,0,0.6,0c0,0-0.1,0.1-0.1,0.1c0.1,0.1,0.3,0.2,0.5,0.3c-0.3,0-0.6,0-1,0
			c0.2,0.2,0.3,0.4,0.4,0.4c0.4,0.2,0.4,0.2,0.1,0.6c-0.1-0.1-0.1-0.1-0.2-0.2c0,0-0.1,0-0.1,0.1c0.2,0.4,0.5,0.8,0.7,1.3
			c-0.2,0.2-0.4,0.3-0.7,0.5c0.1,0.1,0.2,0.3,0.3,0.5c0,0.1-0.1,0.3-0.2,0.4c-0.1,0-0.1,0-0.2,0c0.1,0.2,0.2,0.4,0.3,0.6
			c0,0.1,0.1,0.3,0,0.4c-0.1,0.2-0.2,0.4-0.3,0.6c0.3,0.1,0.4,0.1,0.6,0.2c-0.3,0.2-0.4,0.3-0.6,0.3c0,0,0,0,0.1,0
			c0.1,0,0.3-0.1,0.5-0.2c-0.2,0.6-0.4,1.1-0.5,1.6c0,0,0.1,0,0.1,0c0.1-0.1,0.3-0.2,0.5-0.5c0,0.3,0,0.6,0,0.8
			c-0.6,0-0.5,0.5-0.6,0.9c-0.1,0.2-0.1,0.5,0.3,0.4c0.1,0,0.2,0.1,0.3,0.2c0,0,0,0.2-0.1,0.2c0,0-0.2,0-0.2,0
			c-0.1,0.1-0.1,0.2-0.2,0.3c-0.4,0.8,0,1.4,0.3,2.1c0,0.1,0.1,0.2,0.1,0.3c0,0.5-0.1,1.1-0.2,1.7c-0.1-0.3-0.2-0.4-0.2-0.5
			c-0.1,0-0.1,0-0.2,0c0,0.3,0.1,0.6,0.1,0.8c0,0,0.1,0,0.1,0c0-0.1,0.1-0.2,0.1-0.4c0,0.1,0.1,0.1,0.1,0.1c0.1,0.6-0.1,1.2,0.4,1.7
			c0,0-0.1,0.3-0.1,0.3c-0.4,0.4-0.8,0.8-0.6,1.5c0,0,0,0,0,0.1c0,0.6-0.1,1.1,0.5,1.5c0.2,0.1,0.1,0.5,0.1,0.8
			c0,0.1-0.1,0.2-0.2,0.2c-0.1,0-0.2-0.1-0.2-0.2c0-0.1,0-0.2-0.1-0.3c0,0.6,0,1.1,0,1.7c0.2,0.1,0.4,0.2,0.4,0.3
			c0,0.4,0,0.8-0.1,1.3c0,0,0,0,0,0c-0.2,0.2-0.3,0.5-0.4,0.6c0.2,0,0.4,0.1,0.7,0.1c-0.6,0.4-1.1,0.8-0.6,1.5
			c0.1,0,0.3,0.1,0.7,0.2c-0.2,0.2-0.3,0.3-0.4,0.5c-0.1,0.3-0.3,0.6-0.3,0.9c0,0,0.3,0.1,0.5,0.2c-0.2,0.2-0.4,0.4-0.5,0.6
			c0,0,0.1,0,0.2,0c-0.1,0.1-0.3,0.2-0.3,0.3c0,0.7,0.1,1.4,0.1,2.1c0,0.4,0,0.8,0,1.2c0,0.2,0,0.3,0.1,0.4c0.1,0.2,0.3,0.3,0.3,0.3
			c0,0.5,0,0.8,0,1.1c-0.4-0.1-0.5,0-0.5,0.4c0,0.6,0,1.1,0,1.6c0.5,0.1,1,0.2,1.4,0.3c0.1,0.1,0.1,0.3,0.2,0.4c0,0,0.1,0,0.1-0.1
			c0-0.8,0-1.6,0-2.3c-0.3-0.2-0.5-0.4-0.8-0.6c0.3-0.2,0.5-0.3,0.7-0.4c-0.3-0.3-0.5-0.5-0.8-0.8c0.1-0.4,0.8-0.2,0.8-0.7
			c0.1-0.5,0-0.9-0.3-1.1c0-0.3,0-0.6,0.1-0.9c0.2-0.2,0.3-0.5,0.3-0.7c0-0.1-0.1-0.3-0.3-0.3l0,0l0,0c0.1,0,0.1-0.1,0.1-0.1
			c0.1-0.1,0.2-0.2,0.2-0.3c0,0,0-0.1-0.1-0.1c0,0,0,0-0.1,0c0,0-0.1-0.1-0.1-0.1c-0.1-0.1-0.3-0.2-0.3-0.3c0.2,0,0.3-0.1,0.5-0.1
			c-0.2-0.5-0.3-0.9-0.5-1.4c-0.1-0.1-0.4-0.3-0.4-0.4c0-0.3,0.2-0.5,0.3-0.7c0.2,0.2,0.4,0.3,0.6,0.5c-0.1-0.4-0.1-0.7-0.1-1
			c-0.1-0.3-0.2-0.5-0.3-0.7c0.1-0.1,0.4-0.3,0.4-0.5c0-0.7,0-1.4,0-2c0-0.1-0.1-0.3-0.1-0.4c0.4-0.3,0.1-0.5,0.1-0.6
			c0-0.3,0.1-0.6,0.1-0.9c-0.2,0-0.2,0.1-0.3,0.1c-0.1,0-0.2,0-0.3,0c0.1-0.1,0.1-0.4,0.2-0.4c0.5,0.1,0.3-0.3,0.4-0.5
			c-0.2-0.3-0.4-0.5-0.6-0.7c0.2-0.4,0.7-0.5,0.6-1c-0.1-0.2-0.3-0.3-0.6-0.5c0-0.1-0.2-0.6-0.2-0.6c0.4-0.2,0.1-0.5,0.1-0.8
			c-0.1-0.3-0.1-0.7-0.1-1c0.3,0.1,0.4,0.1,0.8,0.2c-0.2-0.1-0.4-0.2-0.5-0.3c0,0,0-0.1,0-0.1c0.2,0,0.3,0,0.5,0c0,0,0-0.1,0-0.1
			c-0.1,0-0.3-0.1-0.3-0.1c0.1-0.6,0.2-1.2,0.3-1.8c-0.2,0-0.3,0-0.5-0.1c0.4-0.5,0.6-1,0.5-1.6c0,0,0,0,0-0.1
			c-0.1-0.1-0.1-0.1-0.2-0.2c-0.4-0.3-0.4-0.4,0-0.8c0.1-0.1,0.1-0.3,0.1-0.4c0-0.2,0-0.4,0-0.6c0-0.2,0.1-0.4,0.1-0.7
			c-0.3,0-0.4,0.1-0.7,0.1c0.3-0.4,0.5-0.7,0.7-0.9c-0.3-0.1-0.5-0.1-0.7-0.2c0,0,0-0.4,0.1-0.4c0.2,0,0.5,0,0.7,0.1
			c0-0.2,0.1-0.5-0.1-0.7c-0.5-0.4-0.4-0.7,0.1-1c0,0,0-0.1,0-0.1c0,0,0,0.1-0.1,0.1c-0.1-0.1-0.3-0.2-0.4-0.3
			c0.2-0.2,0.3-0.4,0.4-0.5c-0.4-0.2-0.8-0.4-1.1-0.6c0.3-0.4,0.6-0.7,0.9-1c0,0-0.1-0.1-0.2-0.2c-0.1,0.1-0.1,0.2-0.1,0.2
			c-0.1-0.2-0.3-0.4-0.4-0.6c-0.4-0.4-0.4-0.4,0.1-0.7c0.2-0.1,0.4-0.2,0.6-0.4c0.1-0.1,0.1-0.4,0-0.4c-0.5-0.1-0.2-0.5-0.3-0.7
			c-0.1-0.2-0.2-0.4-0.3-0.7c-0.2,0.3-0.4,0.4-0.5,0.6c-0.1,0.1-0.1,0.2-0.2,0.3c0-0.1,0-0.3,0-0.4c0.2-0.4,0.1-1.2-0.2-1.4
			c0.2,0,0.3-0.1,0.4-0.1c-0.4-0.6-0.8-1.1-1.4-0.9c-0.1-0.3,0-0.5-0.1-0.6c-0.9-0.6-1.9-1-3-1c0.1,0.3,0.2,0.6,0.4,1
			c-0.5-0.3-0.8-0.5-1.2-0.7c0,0.2,0,0.4,0.1,0.6c-0.2-0.1-0.3-0.1-0.5-0.2c0.1-0.3,0.2-0.5,0.4-0.7c-0.2,0-0.3-0.1-0.4,0
			c-0.3,0.2-0.5,0.3-0.7,0c-0.1-0.1-0.4-0.1-0.5,0c-0.2,0.1-0.3,0.4-0.4,0.5c-0.2-0.1-0.4-0.1-0.6-0.2c0-0.1,0-0.2,0-0.4
			c-0.5-0.1-1,0.7-1.5,0.1c-0.2,0.3-0.3,0.6-0.5,0.8c0,0-0.1,0-0.1,0c0-0.1,0-0.2,0-0.4c-0.4-0.1-0.8-0.2-1.2-0.2c0,0,0,0.2-0.1,0.4
			c0-0.3-0.1-0.5-0.1-0.7c0,0-0.1,0-0.1,0c-0.1,0.2-0.1,0.3-0.2,0.6c0-0.1,0-0.1,0-0.1c0-0.1,0-0.2-0.1-0.3c0,0.1-0.1,0.2-0.1,0.3
			c-0.5-0.2-0.7,0.3-1.1,0.5c-0.1,0.1-0.3,0.1-0.4,0.1c0-0.1,0-0.2,0-0.4c-0.1,0-0.2-0.1-0.4-0.1c0.1-0.2,0.1-0.3,0.2-0.5
			c-0.2,0-0.4,0-0.5,0c0.1,0.6,0,0.7-0.6,0.7c-0.2-0.2-0.3-0.6-0.4-0.6c-0.6,0-0.8-0.3-1.3,0.8c-0.3-0.2-0.8-0.3-0.6-0.9
			c-0.3,0-0.6,0-0.9,0c-0.1,0.3-0.2,0.6-0.3,1c-0.2-0.2-0.5-0.3-0.5-0.4c0.1-0.5-0.4-0.5-0.5-0.5c-0.3-0.1-0.7-0.1-1-0.1
			c-0.2,0-0.4,0.2-0.5,0.2c-0.1,0-0.3,0-0.4-0.1c-0.2-0.2-0.2-0.2-0.4,0.1c-0.2,0.2-0.4,0.3-0.6,0.4c0,0-0.2-0.3-0.3-0.5
			c-0.2,0.1-0.6,0.3-1,0.5c0-0.3-0.1-0.4-0.1-0.5c-1.5,0-2.9,0-4.3,0c0,0,0,0,0.1,0.1c0,0,0,0.1,0,0.1c-0.4-0.1-0.8-0.2-1.2-0.2
			c0,0.2,0,0.4,0.1,0.7c-0.4-0.2-0.6-0.4-0.8-0.5c-0.1,0.1-0.3,0.2-0.4,0.2c-0.4,0-0.9-0.1-1.3-0.2c0,0,0.1-0.1,0.1-0.2
			c-0.7,0-1.4,0-2,0c-0.2,0-0.3,0.2-0.5,0.2c-0.4,0-0.5,0.2-0.6,0.5c0,0,0,0,0,0v0l0,0l0,0c0,0,0,0,0,0c0.2,0.1,0.4,0.1,0.5,0.2
			c0,0,0,0.3-0.1,0.4c-0.1,0.1-0.2,0.1-0.4,0.1c0,0-0.1-0.2-0.1-0.3c0-0.1,0-0.2,0-0.3c0,0,0,0,0,0c0,0,0,0,0,0
			c-0.1,0.1-0.2,0.1-0.3,0c-0.1,0-0.1,0-0.1-0.1c-0.2-0.1-0.4-0.3-0.7-0.2c0,0.1,0,0.2,0,0.3c0,0-0.1,0-0.1,0
			c-0.1-0.3-0.1-0.6-0.2-0.7c-0.2,0.1-0.5,0.2-0.6,0.2c-0.5-0.1-0.8,0-1.1,0.4c-0.1-0.1-0.3-0.1-0.5-0.2c0.2-0.1,0.3-0.1,0.3-0.1
			c0-0.1,0-0.1,0-0.2c-0.4-0.1-0.7-0.1-1.1-0.2c0,0.1,0,0.1,0,0.2c0.1,0.1,0.3,0.1,0.3,0.2c-0.1,0.2-0.3,0.3-0.4,0.5
			c-0.3-0.4-0.9-0.7-1.4-0.7c-0.2,0-0.4,0-0.5,0c0,0.2,0,0.4,0,0.6c-0.2,0-0.4,0-0.5-0.1c-0.1-0.1-0.1-0.3-0.2-0.6
			c-0.2,0.1-0.5,0.3-0.7,0.4c-0.5,0-0.9,0-1.3,0c-0.1-0.1-0.2-0.3-0.4-0.4c0.1,0.5,0,0.7-0.7,0.9c0.1-0.2,0.2-0.4,0.3-0.5
			c-0.3-0.2-0.5-0.4-1-0.1c-0.4,0.3-1,0.2-1.3,0c-0.2,0.2-0.4,0.3-0.6,0.5c-0.1-0.3-0.1-0.5-0.1-0.7c-0.2,0-0.4,0-0.6,0
			c-0.7,0-1.3,0.1-2,0.1c-0.1,0-0.3-0.1-0.3,0c-0.3,0.4-0.5,0.2-0.8-0.1c-0.1,0.2-0.1,0.3-0.1,0.4c-0.4,0-0.7-0.1-1.1-0.1
			c0,0,0-0.1,0-0.2c-0.3,0-0.6,0-0.8,0c0,0.2-0.1,0.5-0.1,0.7c0,0-0.1,0-0.1,0c-0.1-0.2-0.1-0.4-0.1-0.6c-0.3,0-0.6,0-0.9,0
			c-0.1,0.1-0.2,0.5-0.3,0.5c-0.3,0.1-0.6,0.4-1,0c0-0.1-0.3,0-0.4,0c-0.1,0-0.3,0.1-0.4,0c-0.2-0.1-0.4-0.3-0.6-0.5
			c-0.2-0.2-1.1-0.3-1.2-0.1c-0.3,0.6-0.4,0.1-0.7-0.2c-0.2,0.3-0.4,0.6-0.7,0.9c0-0.4,0-0.6,0.1-0.7c-0.4,0-0.8,0-1.3-0.1
			c0.1,0.2,0.1,0.4,0.3,0.6c-0.4-0.2-0.9,0-1-0.5c0-0.1-0.1-0.1-0.2-0.1c-0.3,0-0.6,0-1.1,0.1c0.2,0.2,0.4,0.2,0.5,0.3
			c0,0,0,0.1,0,0.1c-0.2,0-0.3,0-0.5,0c0-0.2-0.1-0.4-0.1-0.5c0,0-0.1,0-0.1,0c0,0.2,0,0.5,0,0.6c-0.2,0-0.4,0-0.6,0c0,0,0,0,0,0.1
			c0.1,0,0.2,0.1,0.2,0.1c-0.2,0.2-0.3,0.4-0.5,0.6c0-0.5,0-0.8,0-1.2c-0.4,0-0.7,0.2-1,0.1c-0.5-0.2-0.8-0.3-1.2,0.1
			c-0.1,0.1-0.4,0.1-0.5,0.1c-0.4-0.4-0.6-0.2-0.8,0.2c-0.1-0.1-0.2-0.4-0.2-0.4c-0.4,0.1-0.8,0.1-1.1,0.3c-0.3,0.2-0.6,0.5-0.8,0.7
			c0,0,0.1,0.1,0.2,0.1c-0.1,0-0.1,0-0.2,0.1c-0.4,0.2-0.7,0.7-1.2,0.2c0,0-0.1,0-0.1,0.1c-0.3,0.4-0.6,0.8-0.9,1.3
			c-0.3,0-0.4,0.2-0.1,0.6c-0.4,0-0.6,0.1-0.4,0.5c0,0.1-0.1,0.3-0.1,0.4C38.1,24.8,38,24.9,38,25c0.2,0.3,0.4,0.7,0.6,1
			c-0.2,0-0.3-0.1-0.5-0.2c-0.1,0-0.2-0.1-0.2-0.1c-0.1,0-0.2,0.1-0.2,0.2c0,0.4,0.1,0.8,0.2,1.2c0,0-0.1,0-0.1,0.1
			c0.2,0.2,0.4,0.4,0.7,0.7c-0.3,0-0.5,0-0.7,0c-0.1,0.4,0.5,0.8,0,1.2c0,0,0.1,0.2,0.1,0.2c0.4,0,0.4,0.3,0.5,0.5
			c-0.1,0.1-0.2,0.1-0.3,0.1c0.1,0.2,0.3,0.4,0.4,0.6c0,0,0,0.1,0,0.1c-0.4,0.2-0.6,0.3-0.6,0.6c0,0.1,0,0.3,0,0.4
			c0,0.1,0,0.2,0.1,0.3c0,0.1-0.1,0.2-0.1,0.3c0.1,0,0.2,0.1,0.4,0.1c-0.7,0.1-0.3,0.6-0.4,0.9c0.5,0.1,0.8,0.3,0.9,0.9
			c-0.9-0.3-0.9-0.3-0.8,0.9c0.1-0.2,0.2-0.3,0.3-0.5C38.1,35,38.4,35.5,37.7,35.8z M111.8,52.7c-0.1,0.1-0.2,0.2-0.3,0.2
			c0.1,0,0.2,0,0.4,0.1c-0.1,0.4-0.2,0.7-0.3,1.1c-0.1-0.2-0.6-0.3-0.3-0.7c0.1-0.1-0.1-0.5-0.1-0.8
			C111.5,52.6,111.6,52.6,111.8,52.7z M103.2,20.8c0.3,0.1,0.5,0.2,0.8,0.3c-0.4,0.5-0.8,0-1.2,0.1c0,0,0-0.1,0-0.1
			C103,21,103.1,20.8,103.2,20.8z M87.2,20.7c0.3,0.2,0.8-0.3,0.9,0.4c-0.3,0-0.6,0-0.9-0.1C87.2,20.9,87.2,20.8,87.2,20.7z
			 M84.7,20.3c0.7-0.1,0.6,0.5,0.7,0.9C84.9,21.1,84.7,20.9,84.7,20.3z M39,32.7c0.2,0.3,0.3,0.5,0.5,0.7c-0.3,0.1-0.5,0.1-0.8,0.2
			C38.8,33.3,38.8,33.1,39,32.7z"/>
		<path fill="#A9976D" d="M112.1,52.6c0,0,0.1,0.1,0.1,0.1C112.2,52.7,112.1,52.7,112.1,52.6z"/>
		<path fill="#A9976D" d="M112.2,53.1c0.1-0.1,0.2-0.2,0.2-0.3C112.3,52.9,112.3,53,112.2,53.1z"/>
		<path fill="#A9976D" d="M112.3,53.6c0-0.1-0.1-0.3-0.3-0.3l0,0C112.2,53.3,112.3,53.4,112.3,53.6z"/>
		<path fill="#A9976D" d="M110.6,44.5c0,0.1,0,0.2,0.1,0.3C110.6,44.8,110.6,44.7,110.6,44.5C110.6,44.5,110.6,44.5,110.6,44.5z"/>
		<path fill="#A9976D" d="M112.3,52.8C112.3,52.8,112.3,52.8,112.3,52.8C112.3,52.8,112.3,52.8,112.3,52.8z"/>
		<path fill="#A9976D" d="M39.3,25.4c-0.1-0.1-0.3-0.2-0.6-0.3v0C38.9,25.2,39.1,25.3,39.3,25.4z"/>
		<path fill="#A9976D" d="M99,20.2L99,20.2c0,0.1,0,0.2,0.1,0.3C99,20.3,99,20.3,99,20.2z"/>
		<polygon fill="#A9976D" points="76.2,20.7 76.2,20.7 76.2,20.7 		"/>
		<path fill="#A9976D" d="M76.2,20.7L76.2,20.7c-0.1,0.1-0.2,0.1-0.3,0C76,20.8,76.1,20.8,76.2,20.7z"/>
		<polygon fill="#A9976D" points="76.2,20.7 76.2,20.8 76.2,20.7 		"/>
		<path fill="#A9976D" d="M39.4,123.2c0,0.1,0,0.3,0,0.5c0.1-0.1,0.1-0.3,0.2-0.4C39.5,123.2,39.5,123.2,39.4,123.2z"/>
		<rect x="86.8" y="129" fill="#A9976D" width="0" height="0"/>
		<path fill="#A9976D" d="M86.2,128.6c0-0.1,0-0.2,0-0.3c-0.6,0-1.1,0-1.7,0c0.1,0.1,0.2,0.1,0.4,0.2c-0.4,0.3-0.7,0.5-0.9-0.1
			c0-0.1-0.3-0.2-0.4-0.2c0,0-0.1,0.1-0.1,0.1c0.1,0.2,0.1,0.4,0.2,0.5c-0.3,0.1-0.7-0.2-0.6-0.7c-0.4,0.1-0.8,0.3-1.1,0.4
			c-0.2,0-0.5,0-0.5-0.1c-0.2-0.3-0.4-0.1-0.5,0c-0.3,0.4-0.6,0.4-0.9,0.2c-0.3-0.3-0.7-0.4-1-0.3c-0.1,0.2-0.1,0.4-0.2,0.5
			c-0.1,0-0.3-0.1-0.5-0.2c0.2-0.1,0.3-0.2,0.5-0.3c-0.7,0-1.2,0-1.7,0c-0.2,0-0.4,0.2-0.6,0.3c-0.1,0-0.3,0-0.4,0
			c-0.2-0.3-0.4-0.3-0.7-0.2c-0.2,0-0.5,0-0.7,0c-0.1,0-0.3,0-0.5,0.1c0.3,0.2,0.5,0.3,0.7,0.4c-0.2,0.2-0.3,0.4-0.5,0.5
			c0,0-0.1,0-0.1,0c0.1-0.2,0.1-0.4,0.2-0.5c-0.2,0-0.5,0-0.7,0.1c-0.1-0.2-0.2-0.4-0.3-0.6c-0.2,0-0.4,0-0.5,0
			c-0.5,0.1-1,0.1-1.4,0c-0.3,0-0.6,0.1-0.5,0.5c-0.2,0-0.4,0-0.6,0c0.1-0.2,0.2-0.3,0.4-0.5c-0.3,0-0.7-0.1-0.8,0
			c-0.3,0.5-0.5,0.2-0.8,0.1c-0.7-0.2-0.9-0.2-1,0.2c-0.2,0.3-0.8-0.2-0.6,0.5c0,0-0.1,0.2-0.1,0.2c-0.3-0.1-0.7-0.2-0.9-0.3
			c-0.1-0.1-0.1-0.4-0.2-0.7c-0.1,0-0.3,0-0.4,0c0,0,0.1,0.1,0.1,0.1c-0.2,0.1-0.4,0.3-0.7,0.5c-0.1-0.2-0.2-0.4-0.3-0.6
			c-0.1,0-0.3-0.1-0.5,0c-0.2,0-0.4,0.1-0.5,0.3c-0.2,0.3-0.4,0.4-0.5-0.1c0-0.1-0.2-0.1-0.5-0.2c0.2,0.2,0.3,0.4,0.4,0.5
			c-0.3,0-0.4,0-0.6-0.3c0,0-0.1-0.1-0.1-0.1c-0.3,0.1-0.7-0.5-1,0.1c-0.1,0.1-0.6,0.1-0.7,0c-0.4-0.6-0.9,0-1.2-0.2
			c0.1,0.2,0.2,0.4,0.3,0.5c0,0-0.1,0.1-0.1,0.1c-0.2,0-0.3-0.1-0.5-0.1c-0.5-0.1-0.9-0.3-1.4-0.4c-0.2,0-0.4,0.1-0.5,0.3
			c-0.4,0.4-0.8,0.4-1.1-0.1c0.2-0.1,0.3-0.1,0.5-0.2c-0.4-0.1-0.9-0.3-1,0.4c0,0.1-0.2,0.1-0.2,0.1c-0.1,0-0.1-0.1-0.2-0.2
			c-0.2-0.2-0.4-0.4-0.6-0.5c-0.1,0-0.3,0.1-0.5,0.2c-0.1-0.1-0.1-0.1-0.2-0.1c-0.3-0.1-0.7-0.1-0.8,0.2l0,0h0
			c-0.1-0.1-0.1-0.2-0.2-0.3c0,0-0.1,0-0.1,0.1c0.1,0.2,0.3,0.4,0.4,0.6c0,0-0.1,0.1-0.1,0.1c-0.1-0.1-0.3-0.2-0.4-0.3
			c-0.1-0.1-0.2-0.3-0.3-0.3c-0.4-0.1-0.8-0.1-1.3-0.2c0,0,0,0.1,0,0.1c0.1,0.1,0.3,0.1,0.4,0.2c-0.2,0.1-0.4,0.2-0.5,0.3
			c-0.3-0.2-0.6-0.4-0.9-0.5c-0.5-0.1-1,0.3-1.5,0c0,0,0,0,0,0.1c0.3,0.1,0.6,0.3,0.9,0.4c-0.2,0.5-0.6,0-0.9,0.3
			c0,0.1-0.1,0.2-0.2,0.4c0,0-0.1,0-0.1,0c0-0.3,0.1-0.7,0.1-1c-0.5-0.3-0.7-0.1-0.9,0.3c-0.1,0.2-0.4,0.2-0.7,0.4
			c-0.1-0.3-0.1-0.4-0.1-0.5c-0.1-0.1-0.1-0.2-0.2-0.3c-0.1,0-0.2,0-0.3,0.1c-0.1,0,0,0.1-0.1,0.2c-0.1-0.1-0.2-0.2-0.3-0.2
			c-0.3-0.1-0.6-0.1-0.9-0.2c0,0.2-0.1,0.4-0.1,0.6c-0.3,0-0.5,0-0.8,0c-0.2-0.1-0.4-0.2-0.7-0.3c0.2,0,0.3,0,0.4-0.1
			c-0.5-0.1-0.9-0.1-1.3-0.2c0,0,0,0,0-0.1c-0.3,0.1-0.5,0.1-0.8,0.2c0-0.1,0-0.1-0.1-0.2c0.1-0.1,0.2-0.2,0.3-0.2
			c-0.6-0.4-1.2-0.7-1.7-1c-0.4-0.7-0.8-1.4-1.2-2.1c0.1-0.1,0.5-0.4-0.1-0.5c0,0,0-0.2,0-0.3c0,0,0,0,0-0.1
			c-0.2-0.2-0.4-0.3-0.4-0.3c0.1-0.2,0.2-0.4,0.4-0.6c0,0-0.1-0.1-0.1-0.1c-0.2-0.1-0.3-0.2-0.5-0.3v0c0,0,0,0,0,0
			c0.2-0.4,0.3-0.6,0.5-0.4c0.1,0.1,0.2,0.1,0.3,0.2c0-0.8,0-1.5,0-2.2c-0.1-0.1-0.3-0.2-0.5-0.4c0.2-0.1,0.4-0.2,0.5-0.2
			c-0.1-0.2-0.3-0.4-0.3-0.6c0-0.1,0.2-0.2,0.4-0.3c-0.2-0.2-0.4-0.3-0.6-0.5c-0.1-0.1,0-0.4,0.1-0.4c0.1-0.1,0.3-0.1,0.5-0.1
			c0-0.3,0-0.6,0-0.9c-0.1,0-0.3,0-0.4-0.1c0-0.2,0-0.5,0-0.7c0.2,0,0.3,0.1,0.4,0.1c0-0.4,0-0.8,0-1c-0.2-0.1-0.3-0.2-0.5-0.2
			c0.1-0.1,0.1-0.2,0.2-0.2c0.3,0.2,0.3-0.1,0.3-0.2c0-0.4,0.1-0.8-0.3-1c-0.1-0.3-0.1-0.5-0.2-0.6c-0.1-0.2-0.3-0.3-0.4-0.5
			c0,0,0.1-0.1,0.1-0.1c0.6,0.1,0.6-0.3,0.7-0.7c-0.3-0.1-0.6-0.1-0.8-0.2c0.2-0.5,0.5-0.9,0.6-1.3c0.1-0.5,0.1-1,0.2-1.4
			c-0.4-0.6-0.8,0.5-1.2-0.2c0.4-0.1,0.8-0.1,1.1-0.2c0-1,0-2,0-2.9c-0.2,0.1-0.4,0.2-0.6,0.3c-0.2-0.3-0.2-0.5,0.2-0.6
			c0.4-0.1,0.5-0.4,0.4-0.7c0-0.3-0.1-0.6-0.1-0.9c-0.1,0-0.4,0-0.7,0c0.1-0.5,0.2-0.9,0.3-1.3c0.1-0.1,0.4-0.3,0.5-0.5
			c0-0.2-0.2-0.4-0.2-0.6c0.1-0.3,0.3-0.6,0.4-0.9c-0.1,0-0.1,0-0.2,0c-0.1-0.1-0.3-0.2-0.3-0.3c0-0.2,0.1-0.5,0.2-0.7
			c0.3-0.7,0.2-0.9-0.3-1.3c0.2-0.2,0.3-0.4,0.5-0.7c-0.8-0.1-0.5-0.7-0.5-1.1c0-0.2,0.3-0.5,0.4-0.8c0,0,0.1,0,0.1,0.1
			c0-0.3,0-0.5,0-0.8c-0.2,0-0.4,0-0.7,0c0.1-0.2,0.1-0.4,0.2-0.5c-0.2,0-0.3-0.1-0.5-0.1c0.1-0.2,0.1-0.3,0.2-0.5
			c0.9,0.3,1-0.4,0.9-1.6c-0.4-0.1-0.7-0.1-0.5-0.6c0.2,0,0.3,0,0.6-0.1c-0.1-0.9,0.2-1.7-0.2-2.5c0.1-0.2,0.2-0.3,0.2-0.5
			c0-0.4,0.1-0.8-0.3-1.1c0,0,0-0.2,0.1-0.2c0.3-0.4,0.3-1.3,0-1.5c0.1-0.4,0.2-0.7,0.3-1c-0.5-0.2-0.5-0.3-0.1-0.6
			c0.1-0.1,0.1-0.2,0.1-0.3c0-0.3,0-0.6,0-0.9c-0.1,0-0.3-0.1-0.4-0.1c0.1-0.1,0.1-0.2,0.1-0.2c0,0-0.1,0-0.1-0.1
			c-0.1,0.1-0.2,0.2-0.3,0.3c0,0-0.1,0-0.1,0c0-0.4,0.1-0.9,0.1-1.3c0,0,0.1,0,0.1,0c0,0.1,0,0.1,0.1,0.3c0-0.4,0.1-0.6,0.4-0.3
			c-0.1-0.3-0.1-0.5-0.2-0.8c-0.1,0.2-0.1,0.3-0.2,0.4c0-0.1-0.1-0.2,0-0.2c0.3-0.2-0.1-0.8,0.4-1c0,0,0-0.2,0-0.2
			c-0.6-0.3-0.2-0.5,0.1-0.8c-0.7-0.5-0.5-1.2-0.3-1.9c-0.3,0.1-0.6,0.1-0.8,0.2c0,0,0-0.1,0-0.1c0.2-0.2,0.4-0.5,0.6-0.6
			c0.2-0.1,0.4-0.1,0.3-0.4c0-0.2-0.1-0.3-0.1-0.5c0.4-1.6,0.2-2.6-0.7-2.8c0.1-0.1,0.1-0.2,0.2-0.3c0.2,0.1,0.4,0.2,0.5,0.3
			c0-0.2,0-0.4,0.1-0.6c0.1-0.5,0.1-0.9-0.2-1.3c0,0,0,0,0-0.1c0.3-0.3,0.1-0.7,0.2-1.1c0-0.1-0.1-0.3-0.2-0.5
			c-0.1-0.2-0.3-0.5-0.5-0.8c0.4,0.1,0.6,0.1,0.8,0.2c-0.1-0.6,0.1-1.3-0.7-1.7c0.2-0.2,0.4-0.3,0.7-0.6c0.2-0.4-0.2-0.7-0.6-1
			c-0.1-0.1-0.2-0.2-0.2-0.3c0-0.2,0.2-0.4,0.3-0.4c0.7,0,0.4-0.5,0.5-0.8c-0.2,0.1-0.5,0.3-0.6,0.2c-0.3-0.2-0.1-0.4,0.1-0.6
			c0.1-0.2,0.2-0.3,0.4-0.5c-0.6-0.1-0.4-0.4-0.3-0.7c0.2,0,0.3,0,0.6,0.1c-0.5-0.6-0.8-1.2-0.6-1.8c0.2-0.1,0.3-0.2,0.5-0.2
			c-0.2-0.4-0.4-0.8-0.7-1.1c-0.2-0.2-0.6-0.3-0.9-0.4c0-0.1,0.1-0.3,0.2-0.5c0.4,0,0.8,0.6,1.1,0.1c0.2-0.2,0.2-0.6,0.3-0.9
			c-0.5-0.1-0.9-0.1-1.2-0.2c0-0.1,0-0.3,0-0.4c-0.2,0-0.4,0-0.5,0c0,0.5,0.2,0.7,0.7,0.8c0,0.1,0,0.3-0.1,0.4
			c-0.2-0.1-0.4-0.2-0.7-0.4c0,0.2,0,0.2,0,0.3c0.1,0.4-0.3,0.9,0.3,1.2c-0.1,0.1-0.1,0.2-0.2,0.3c0,0.4-0.1,0.9,0,1.2
			c0.1,0.3,0.2,0.3-0.2,0.4c0.2,0.3-0.1,0.9,0.5,0.9c0.1-0.2,0.2-0.3,0.2-0.4c-0.1-0.1-0.2-0.3-0.4-0.5c0.5-0.1,0.6,0.2,0.6,0.5
			c0.1,0.4-0.4,0.9-1,1c0.1,0.3,0.2,0.6,0.2,0.9c-0.3,1-0.1,2-0.1,2.9c-0.1,1-0.1,2.1,0,3c0.2,1-0.3,1.9,0,2.9
			c0.1-0.2,0.2-0.4,0.2-0.5c0.3,0.1,0.5,0.1,0.9,0.2c-0.1,0.6-0.8,0.5-1.1,0.8c0.1,0.3-0.2,0.7,0.2,0.8c-0.1,0.4-0.2,0.7-0.2,1.1
			c0,0.1,0.4,0.2,0.7,0.3c-0.2,0.1-0.5,0.2-0.7,0.3c0,0.1,0,0.3,0,0.4c0,0.3,0.1,0.6,0.4,0.9c0.1,0,0.1,0.1,0.2,0.1l0,0c0,0,0,0,0,0
			c-0.1,0.2-0.3,0.3-0.4,0.5c0,0.1,0.1,0.4,0,0.4c-0.4,0.1-0.2,0.5-0.3,0.7c0,0.4,0,0.8,0,1.2c0.1,0.5,0.2,1.1,0.3,1.6
			c0,0.1,0,0.1,0.1,0.2c-0.2,0-0.3,0-0.4,0c0,0.7,0,1.4,0,2.1c0.8-0.5,0.6,0.6,1.1,0.7c-0.1,0.3-0.1,0.6-0.3,0.7
			c-0.2,0.1-0.6,0.1-0.9,0.1c0,0.4,0,1,0,1.5c0,0.1,0,0.2,0.1,0.2c0.4,0.1,0.2,0.4,0.2,0.6c0,0.1,0,0.2,0,0.2c0.5,0.2,0.2,0.5,0,0.7
			c-0.3,0.5-0.1,1,0.2,1.4c0.2,0.3,0.2,0.4-0.1,0.6c-0.1,0.1-0.2,0.2-0.2,0.3c0.3,0.1,0.5,0.2,0.7,0.3c-0.2,0.4-0.9,0.5-0.3,1
			c-0.6,0.3-0.5,0.7-0.1,1c0.2,0.2,0.4,0.4,0.5,0.6c-0.3,0.1-0.5,0.2-0.9,0.3c0,0.2,0,0.5,0,0.8c0.1-0.2,0.2-0.3,0.3-0.4
			c0.1,0.3,0.2,0.5-0.1,0.7c-0.3,0.2-0.3,0.5-0.2,0.9c0,0.1,0,0.2,0,0.4c0,0.1,0,0.3,0,0.3c0.2,0.2,0.4,0.3,0.5,0.5
			c-0.4,0.2-0.2,0.6-0.2,0.9c0,0.3,0,0.5,0,0.8c0,0,0.1,0,0.1,0c0-0.1,0.1-0.3,0.1-0.5c0.2,0,0.3,0,0.5,0c-0.2,0.4-0.4,0.7-0.7,1.1
			c-0.1,0-0.2,0.1-0.4,0.1c0.1,0.5,0.2,0.9,0.3,1.3c0,0.1,0.2,0.1,0.3,0.1c0.1,0,0.3,0,0.3,0c0,0.6-0.7,0.6-0.6,1.3
			c0,0.5,0,1,0.2,1.3c-0.2,0.2-0.4,0.2-0.4,0.4c0,0.1,0,0.3,0.1,0.4c0,0.1,0.2,0.3,0.2,0.3c-0.5,0.3-0.5,0.3-0.1,0.8
			c0.2-0.1,0.4-0.1,0.5-0.2c0,0,0.1,0.2,0.2,0.3c-0.2,0-0.3,0-0.5,0.1c-0.1,0.1-0.3,0.1-0.4,0.3c-0.1,0.1,0,0.3,0,0.4
			c0,0.1,0.1,0.2,0.1,0.3c-0.2,0.5-0.2,0.8-0.1,1.2c0.2,0,0.5,0,0.5,0.1c0.1,0.3,0.1,0.6,0.2,0.8c0,0-0.1,0-0.1,0
			c-0.2-0.2-0.3-0.5-0.5-0.7c0,0,0,0-0.1,0.1c0,0.1,0,0.3,0.1,0.4c0.1,0,0.1-0.1,0.2-0.2c0,0,0.1,0.1,0.1,0.1
			c-0.1,0.1-0.3,0.2-0.4,0.3c0,0.7,0,1.4,0,2c0.5-0.4,0.8,0,1.1,0.2c0,0.6-0.5,0.4-0.8,0.6c-0.1-0.1-0.1-0.2-0.2-0.3
			c-0.1,0.2-0.2,0.4-0.2,0.7c0.2,0.1,0.5,0.1,0.9,0.3c0,0.2-0.1,0.6-0.1,1c-0.1,0-0.1,0-0.2,0c-0.1-0.2-0.3-0.4-0.4-0.6
			c0,0-0.1,0.1-0.1,0.1c0.1,0.2,0.2,0.3,0.4,0.6c0,0.1,0,0.2,0,0.3c0,0.1,0,0.1,0,0.2c0,0.1,0,0.2,0.1,0.3c0,0.1,0,0.1,0,0.2
			c0,0.1,0,0.2-0.1,0.2c0,0,0,0.1-0.1,0.1c0,0,0,0,0,0c0,0.1-0.1,0.1-0.2,0.2c0,0,0-0.1,0-0.1c0,0,0-0.1,0-0.1c0,0.3,0,0.6,0,0.9
			c0-0.1,0-0.1,0-0.2c0.3,0.1,0.5,0.1,0.8,0.2c0-0.1,0.1-0.3,0.1-0.4c0,0,0.1,0,0.1,0c0,0.2,0.1,0.4,0,0.5c-0.3,0.4-0.7,0.5-1.1,0.3
			c0,0.3,0,0.5,0,0.7c0.1,0,0.1,0,0.2,0c0.1,0,0.1,0,0.2,0c-0.1,0.1-0.2,0.2-0.2,0.2c0.2,0.3,0.2,0.3-0.3,0.4
			c0.1,0.2,0.2,0.4,0.2,0.7c-0.2,0.1-0.3,1.7-0.1,1.8c0.1,0,0.1-0.1,0.3-0.2c-0.1,0.6-0.1,1.1-0.2,1.6c-0.1,0.7-0.2,1.3-0.2,2
			c0,0.2,0.2,0.3,0.3,0.5c0,0,0.2-0.1,0.2-0.1c0.2,0.3,0.7,0.6,0.3,1.2c-0.1,0.1-0.1,0.3-0.2,0.5c-0.4-0.1-0.3-0.4-0.3-0.7
			c-0.1,0.2-0.1,0.5-0.2,0.8c0.7-0.1,1.1,0.3,1.4,0.8c-0.5-0.1-1-0.2-1.4-0.4c0.1,0.4,0.2,0.7,0.3,1.1c0,0.1,0.2,0.2,0.3,0.2
			c0.2,0.1,0.3,0,0.5,0.1c0,0.2,0,0.4,0,0.7c0,0,0.1,0,0.1,0c0.1-0.1,0.2-0.3,0.2-0.4c0.6,0.5,0.1,0.9,0.1,1.4
			c0.3,0.1,0.5,0.2,0.8,0.3c-0.1,0.3-0.1,0.3,0.3,0.5l0,0c0,0,0,0,0,0c0-0.3-0.1-0.5,0-0.8c0-0.1,0.2-0.2,0.4-0.4
			c0.1,0.5,0.1,0.8,0.1,1.1c-0.1,0-0.3,0-0.5,0.1c0,0,0,0,0,0c0.1,0.1,0.2,0.1,0.3,0.2c0.2,0.1,0.4,0.3,0.6,0.4
			c0.5,0.3,1.1,0.4,1.7,0.2c-0.1,0.1-0.2,0.1-0.3,0.2c0.6,0.2,0.7,0.2,0.7-0.5c0-0.2,0.1-0.4,0.1-0.6c0.1,0,0.1-0.1,0.2-0.1
			c-0.1,0.6,0.8,0.2,0.7,0.9c-0.3,0-0.5-0.1-0.7-0.1c0,0.1,0,0.3,0,0.5c1,0,2,0,3,0c0-0.1,0-0.2,0-0.4c0.3,0,0.6,0,0.8-0.1
			c0.1,0.2,0.1,0.3,0.2,0.5c0.4-0.1,0.9,0.1,1.2-0.4c0,0,0.2,0,0.3,0c0,0,0,0,0.1,0.1c-0.1,0-0.2,0.1-0.3,0.2c0.4,0,0.7,0.4,0.9,0
			c0.2,0.1,0.3,0.2,0.4,0.2c0.4,0,0.8-0.2,1.2-0.2c0.5,0.1,0.9,0,1.3-0.2c0.3-0.1,0.6-0.2,1-0.3c-0.2,0.3-0.3,0.5-0.4,0.7
			c0,0,0,0.1,0.1,0.1c0.3-0.1,0.7-0.1,0.7-0.3c0.2-0.4,0.4-0.3,0.5-0.1c0.2,0.4,0.6,0.3,0.9,0.3c0.4,0,0.8,0,1.1,0
			c0.1-0.2,0.2-0.3,0.3-0.4c0,0,0.1,0,0.1,0c0,0.1,0,0.2,0,0.3c0.3,0,0.6,0.1,1,0.1c-0.3-0.4-0.1-0.7,0.2-0.9
			c0.1-0.1,0.4,0.1,0.5,0.2c0.2,0,0.5-0.1,0.5,0c0.1,0.2,0.2,0.5,0.3,0.8c0.3-0.2,0.9,0.4,1.2-0.4c0.4,0.1,0.8,0.6,1.3,0.2
			c0,0,0,0,0,0c0.4,0.4,0.5,0.1,0.6-0.3c0.4,0.2,0.8,0.4,1.2,0.4c0.6,0.1,1.2-0.1,1.7,0c0.2-0.3,0.3-0.5,0.4-0.7
			c0.5,0.2,0.7,1.2,1.5,0.6c-0.1-0.1-0.1-0.1-0.2-0.2c0.3,0,0.7,0,0.9,0.1c0.4,0.2,1.3,0.3,1.6,0.1c0.1-0.1,0.5-0.1,0.5-0.1
			c0.3,0.7,0.4,0,0.5,0c0.7,0.1,1.3,0.2,1.8,0.3c0.1-0.3,0.2-0.4,0.2-0.6c0,0,0.1,0,0.1,0c0,0.2,0,0.3,0,0.5c0.4,0,0.8,0,1.1,0
			c0-0.2,0.1-0.3,0.1-0.5c0.1,0.4,0.3,0.5,0.6,0.5c0.5,0,1-0.1,1.5-0.1c0.1-0.1-0.2-0.6,0.4-0.5c-0.1,0.2-0.1,0.4-0.2,0.5
			c0.4,0,0.7,0,1.1,0c0-0.2,0-0.4,0.1-0.7c0.1,0,0.3,0,0.4,0c-0.1,0.1-0.2,0.1-0.3,0.2c0.1,0,0.2,0,0.2,0c0.2,0,0.5-0.1,0.5,0.3
			c0,0.1,0.3,0.1,0.4,0.1c0-0.2,0-0.4,0-0.6c0.2-0.1,0.4-0.1,0.6-0.2c0.1,0.3,0.2,0.5,0.4,0.8c0.3,0,0.7-0.2,1.1-0.1
			c0.5,0.1,0.8,0.2,1.2-0.2c0-0.1,0.3,0,0.3,0c0.2,0.3,0.5,0.3,0.8,0.3c1.1,0.1,2.2-0.2,3.3,0c0.1,0,0.2,0,0.3,0
			c0,0,0.1-0.1,0.1-0.1c-0.2-0.2-0.3-0.3-0.6-0.5c0,0,0,0,0,0c0,0,0-0.1,0-0.2C86.6,128.9,86.4,128.7,86.2,128.6z M38.6,65.4
			c0,0.2-0.1,0.4-0.1,0.6c-0.3-0.4-0.5-0.7-0.7-1.1c0.2-0.3,0.6-0.1,0.9-0.1C38.7,65,38.7,65.2,38.6,65.4z M38,72.1c0,0,0-0.1,0-0.1
			c0.2,0,0.5,0,0.8,0c-0.1,0.3-0.1,0.5-0.1,0.7C38,72.9,38.3,72.2,38,72.1z M38.2,116.6c0.1-0.1,0.1-0.1,0.2-0.2
			c0.3,0.2,0.6,0.3,0.9,0.5c-0.1,0.2-0.2,0.4-0.4,0.6C38.7,117.1,38.4,116.8,38.2,116.6z M69.5,129.6c0,0-0.1,0-0.1,0
			c0-0.2-0.1-0.5,0-0.7c0.1-0.3,0.3-0.5,0.6-0.2C69.8,129.1,69.7,129.3,69.5,129.6z M72.5,129.3c-0.3,0-0.6,0-1.1,0
			c0.3-0.2,0.5-0.4,0.8-0.6c0.1,0.1,0.3,0.3,0.4,0.5C72.6,129.2,72.5,129.3,72.5,129.3z"/>
		<rect x="86.8" y="129" fill="#A9976D" width="0" height="0"/>
		<polygon fill="#A9976D" points="38.3,55.9 38.3,55.9 38.3,55.9 38.3,55.9 38.3,55.9 38.3,55.9 38.3,55.9 		"/>
		<circle fill="#A9976D" cx="38.3" cy="55.9" r="0"/>
		<path fill="#A9976D" d="M54.3,128.3c-0.3-0.1-0.7-0.1-0.8,0.2l0,0C53.6,128.2,54,128.2,54.3,128.3z"/>
		<polygon fill="#A9976D" points="86.8,129 86.8,129 86.8,129 		"/>
		<path fill="#A9976D" d="M39.1,122.8c-0.2-0.1-0.3-0.2-0.5-0.3v0C38.8,122.6,39,122.7,39.1,122.8z"/>
		<path fill="#A9976D" d="M41.4,129.3c-0.2-0.1-0.4-0.2-0.6-0.4C41,129.1,41.2,129.2,41.4,129.3z"/>
		<path fill="#A9976D" d="M86.8,129.2C86.8,129.2,86.8,129.2,86.8,129.2C86.8,129.2,86.8,129.2,86.8,129.2z"/>
		<path fill="#A9976D" d="M38,113.9C38,113.8,38.1,113.8,38,113.9C38.1,113.8,38,113.8,38,113.9z"/>
		<path fill="#A9976D" d="M38.1,113.7c0-0.1,0-0.2,0.1-0.2C38.2,113.5,38.2,113.6,38.1,113.7z"/>
		<path fill="#A9976D" d="M38.1,113c0-0.1,0-0.1,0-0.2C38.1,112.8,38.1,112.9,38.1,113z"/>
		<path fill="#A9976D" d="M39.4,123.6c0,0.1-0.1,0.1-0.1,0.2c0,0,0,0,0.1,0.1C39.4,123.8,39.4,123.7,39.4,123.6z"/>
		<path fill="#A9976D" d="M40.5,128.8c0.1,0.1,0.2,0.1,0.3,0.2C40.7,128.9,40.6,128.9,40.5,128.8L40.5,128.8z"/>
		<rect x="86.8" y="129" fill="#A9976D" width="0" height="0"/>
		<path fill="#A9976D" d="M38.2,113.5c0-0.1,0-0.1,0-0.2C38.2,113.3,38.2,113.4,38.2,113.5z"/>
		<path fill="#A9976D" d="M38.2,75.8c0.1,0,0.1,0.1,0.2,0.1l0,0C38.3,75.9,38.2,75.8,38.2,75.8z"/>
		<path fill="#A9976D" d="M111.6,109.1c-0.2,0.3-0.4,0.5-0.7,0.7c0,0-0.2,0-0.5,0c0.5,0.3,0.8,0.6,1.3,0.9c-0.3,0.1-0.5,0.2-0.7,0.3
			c0-0.2,0-0.3,0-0.4c0,0-0.1,0-0.1,0c0,0.2,0,0.3,0,0.4c0.2,0.1,0.3,0.2,0.6,0.3c-0.4,0.1-0.6,0.2-0.9,0.3c0.1,0.4-0.3,1,0.5,1.1
			c0,0,0,0.1,0.1,0.2c0.1,0.4-0.1,0.5-0.4,0.7c-0.4,0.4-0.2,1.1,0.3,1.5c-0.2,0.1-0.3,0.1-0.5,0.2c0,0.4,0,0.8,0,1.1
			c0.2-0.1,0.4-0.2,0.6-0.3c0,0.1,0.1,0.1,0.1,0.2c-0.2,0.1-0.3,0.2-0.5,0.3c0,0.2,0,0.5-0.1,0.7c-0.3,0.6,0,1.2,0.2,1.8
			c0.2,0.5,0.1,1,0.1,1.5c0,0-0.1,0-0.1,0.1c-0.1,0.2-0.3,0.4-0.3,0.6c0,0.4,0.2,0.7,0.3,1.1c0,0-0.1,0.1-0.2,0.1
			c0.2,0,0.4,0,0.7,0.1c-0.6,0.6-0.1,1.2-0.2,1.8c-0.2-0.2-0.4-0.4-0.6-0.6c0,0.2,0,0.4,0,0.6c0.2,0,0.3,0,0.4,0
			c-0.1,0.2-0.1,0.5-0.2,0.7c-0.1,0-0.3,0-0.3,0c-0.1,0.2-0.2,0.4-0.3,0.5c-0.2,0.2-0.3,0.4,0,0.6c0,0,0,0.1,0,0.2
			c-0.3,0.3-0.5,0.6-0.9,1c-0.1-0.3-0.1-0.4-0.1-0.5c0,0-0.1,0-0.1,0c0.1,0.3,0.1,0.6,0.2,1c-0.4-0.2-0.7-0.8-1.2-0.3
			c0.1,0,0.2,0,0.3,0.1c0,0.2-0.1,0.3-0.1,0.7c-0.2-0.2-0.3-0.3-0.3-0.4c0,0-0.1-0.1-0.1-0.1c-0.1,0-0.1,0.1-0.1,0.1
			c-0.1,0-0.1,0.1-0.2,0.1c-0.2-0.3-0.4,0-0.6,0c-0.3,0.1-0.6,0.3-0.9,0.3c-0.4,0-0.9,0.5-1.2-0.2c-0.1-0.3-1.1-0.1-1.3,0.2
			c-0.2,0.2-0.4,0.3-0.7,0.5c0.1-0.4,0.1-0.6,0.1-0.8c-0.2,0-0.4,0.1-0.5,0.1c-0.1,0-0.2,0-0.4,0c0.3,0.1,0.5,0.2,0.8,0.4
			c-0.7,0.3-0.8,0.3-1-0.4c-0.1,0.1-0.1,0.2-0.2,0.3c-0.1-0.2-0.1-0.3-0.1-0.4c0,0-0.1,0-0.1,0c0,0.2,0,0.3,0,0.5
			c-0.2-0.1-0.4-0.2-0.7-0.3c0.2-0.1,0.3-0.1,0.5-0.2c-0.9-0.3-1.8,0.2-2.6-0.1c0,0.3,0.1,0.5,0.1,0.8c0.2-0.2,0.5-0.4,0.9-0.4
			c0.1,0,0.3,0,0.4,0.1c0,0,0,0.2,0,0.3c-0.1,0.1-0.3,0.2-0.4,0.1c-0.4-0.2-0.5-0.1-0.4,0.3c0,0.1-0.1,0.3-0.2,0.4
			c-0.1,0.1-0.2,0-0.4,0.1c0,0-0.1-0.1-0.1-0.3c0,0,0,0-0.1,0c0,0.1,0.1,0.3,0.1,0.4c0.1,0,0.2-0.1,0.2-0.1c0.4,0.2,0.8-0.3,1.1,0
			c0,0,0.2-0.1,0.2-0.1c0.1,0,0.3-0.1,0.4,0c0.3,0,0.6,0.1,0.9,0.1c0.4,0,0.8-0.1,1.2-0.1c0.3,0,0.5,0.3,0.6-0.2c0,0,0.3,0,0.4,0.1
			c0.2,0.1,0.4,0.2,0.7,0.3c0.5,0,1,0,1.6,0c-0.3-0.2-0.5-0.3-0.8-0.5c0.1,0,0.2-0.1,0.3-0.2c0.1-0.1,0.3-0.2,0.4-0.2
			c0.5,0.1,0.3,0.4,0.1,0.8c0.2,0,0.4,0,0.6,0c0,0,0-0.1,0-0.1c-0.2,0-0.3-0.1-0.5-0.1c0,0,0-0.1,0-0.1c0.4,0.1,0.8,0.3,1.2,0.2
			c0.4,0,0.9-0.3,1.3-0.5c0-0.2-0.1-0.5-0.1-0.8c0.1,0.1,0.3,0.2,0.4,0.3c0.1,0,0.2,0.1,0.2,0.1c0.3,0.1,0.6,0,0.8-0.3
			c-0.1-0.1-0.2-0.2-0.3-0.3c0,0,0,0,0,0c0.2-0.3,0.4-0.5,0.7-0.7c0.2-0.1,0.5-0.1,0.8-0.1c-0.6-0.3-0.2-0.6-0.1-0.8
			c0.1-0.2,0.3-0.2,0.6-0.4c-0.2-0.3,0.3-0.5,0.4-0.9c0.1-0.4,0.2-0.9,0.3-1.3c-0.1,0-0.2-0.1-0.4-0.1c0-0.2,0-0.5,0-0.7
			c0.1,0,0.3,0,0.4,0.1c0-0.3,0-0.5-0.1-0.8c-0.1-0.2-0.3-0.4-0.3-0.5c0.1-0.3,0.3-0.5,0.3-0.6c0-0.4,0.4-0.8-0.1-1.1
			c0,0,0-0.1,0.1-0.2c0.1-0.2,0.1-0.4,0.2-0.5c0,0-0.1-0.1-0.1-0.1c-0.2,0.1-0.4,0.3-0.6,0.4c0.1,0,0.1-0.1,0.2-0.1
			c-0.2-0.2-0.3-0.3-0.5-0.4c0.1-0.1,0.2-0.4,0.3-0.7c0.1,0,0.3,0,0.5,0c0-0.3,0-0.6,0-0.8c0-0.2-0.2-0.4-0.1-0.5
			c0.3-0.5,0.2-1.1,0.2-1.6c0-0.4-0.1-0.6-0.4-0.8c-0.4-0.2-0.3-0.4-0.1-0.7c0.3-0.3,0.6-0.7,0.4-1.2c-0.1-0.4-0.2-0.7-0.4-1.1
			c-0.1-0.1-0.1-0.2-0.1-0.3c0-0.3,0.1-0.4,0.5-0.5c0-0.4-0.1-0.8-0.1-1.2c0,0,0,0-0.1-0.1c-0.1,0.2-0.1,0.4-0.2,0.8
			c-0.2-0.2-0.4-0.4-0.5-0.5c-0.2-0.7,0.4-0.8,0.8-1c0-0.2-0.1-0.4-0.1-0.6c0-0.1-0.3-0.2-0.3-0.2c-0.1,0.1-0.3,0.2-0.4,0.3
			c-0.1,0.1-0.2,0.2-0.4,0.3C111.2,109.1,111.4,109.1,111.6,109.1z M101.8,129.4c-0.2,0-0.4,0.1-0.6,0.1c0-0.2,0-0.4,0-0.5
			c0.2,0.1,0.4,0.1,0.6,0.2C101.8,129.3,101.8,129.4,101.8,129.4z M104.6,129.3c-0.3,0-0.7-0.1-1.1-0.1c0.5-0.7,0.8-0.2,1.1-0.1
			C104.6,129.2,104.6,129.3,104.6,129.3z"/>
		<path fill="#A9976D" d="M92,129.1c-0.3-0.2-0.6-0.3-0.4-0.8c0.2,0.1,0.4,0.1,0.5,0.2c0.1-0.1,0.2-0.1,0.4-0.2
			c-0.4,0-0.7-0.1-1.1-0.2c0,0.2,0,0.3,0,0.5c-0.4,0.1-0.7,0.1-1,0.2c0.1-0.3,0.2-0.4,0.2-0.5c-0.2,0.1-0.3,0.1-0.3,0.1
			c-0.4,0-0.8-0.5-1.1,0.2c-0.2-0.4-0.4-0.4-0.7-0.3c-0.1,0-0.2,0.1-0.2,0.1c-0.5,0-1.1,0-1.6,0c0,0.2,0.1,0.4,0.1,0.6
			c0.1,0,0.1,0.1,0.2,0.2c0,0,0,0,0,0c0.2,0.1,0.3,0.2,0.5,0.2c0.1,0,0.2-0.1,0.3-0.2c0,0,0.1,0,0.1,0c0.3,0.1,0.5,0.1,0.8,0.2
			c0,0.3,0.3,0.4,0.9,0.2c0,0.1,0,0.3,0.1,0.4c0.4,0,0.7,0,1.1,0C91.7,129.9,91.7,129.9,92,129.1C92,129.1,92,129.1,92,129.1
			L92,129.1z"/>
		<rect x="86.8" y="129" fill="#A9976D" width="0" height="0"/>
		<path fill="#A9976D" d="M97.5,128.3C97.5,128.3,97.5,128.2,97.5,128.3c-0.2-0.1-0.4-0.1-0.5-0.1c-0.1,0.2-0.3,0.5-0.5,0.8
			c-0.1-0.3-0.2-0.4-0.2-0.6c-0.1-0.1-0.2-0.2-0.3-0.2c-0.4,0-0.8,0-1.3,0.1c-0.6,0-1.2,0.1-1.9,0c-0.1,0-0.2,0-0.2,0
			c0.2,0.3,0.2,0.5-0.2,0.5c-0.2,0-0.3,0.2-0.4,0.3c0,0,0,0,0,0c0.1,0.1,0.1,0.2,0.2,0.4c0.1,0.1,0.1,0.3,0.2,0.4c0.3,0,0.6,0,1,0
			c0.1-0.4,0.4-0.5,0.7-0.2c0.2,0.1,0.5,0.2,0.9,0.4c0-0.5,0-0.8,0-1.1c0.1,0.1,0.3,0.2,0.2,0.2c-0.1,0.6,0.2,0.3,0.4,0.3
			c0-0.2,0-0.4,0-0.6c0.3,0.3,0.6,0.6,0.9,1c0.4,0.1,0.9-0.1,1.4-0.5c0.1-0.1,0.3-0.3,0.4-0.4c-0.5-0.2-0.9-0.4-1.4-0.6
			C97.2,128.3,97.4,128.3,97.5,128.3z"/>
		<path fill="#A9976D" d="M87,129.2C87,129.1,87,129.1,87,129.2C87,129.1,87,129.1,87,129.2z"/>
		<path fill="#A9976D" d="M109,128.9c-0.1,0-0.2,0-0.2-0.1C108.9,128.9,108.9,128.9,109,128.9z"/>
		<path fill="#A9976D" d="M105.8,129.9C105.8,129.9,105.8,130,105.8,129.9C105.8,130,105.8,129.9,105.8,129.9L105.8,129.9z"/>
		<rect x="111.1" y="109.2" fill="#A9976D" width="0" height="0"/>
		<polygon fill="#A9976D" points="86.8,129 86.8,129 86.8,129 86.8,129 86.8,129 		"/>
		<path fill="#A9976D" d="M98.4,129C98.4,129,98.5,129,98.4,129C98.5,129,98.5,129,98.4,129C98.4,128.9,98.4,129,98.4,129z"/>
		<polygon fill="#A9976D" points="86.8,129 86.8,129 86.8,129 86.8,129 86.8,129 		"/>
		<rect x="111.1" y="109.2" fill="#A9976D" width="0" height="0"/>
		<polygon fill="#A9976D" points="92,129.1 92,129.1 92,129.1 92,129.1 92,129.1 		"/>
		<polygon fill="#A9976D" points="86.8,129 86.8,129 86.8,129 86.8,129 86.8,129 		"/>
		<path fill="#A9976D" d="M92,129.1C92,129.1,92,129.1,92,129.1C92,129.1,92,129.1,92,129.1C92,129.1,92,129.1,92,129.1z"/>
		<path fill="#A9976D" d="M112.2,93.5c0.1,0,0.1,0.1,0.2,0.1c-0.1-0.6-0.2-1.3-0.4-2c0,0,0.1-0.1,0.3-0.2c-0.2-0.1-0.4-0.2-0.5-0.4
			c-0.1-0.3-0.3-0.7,0.3-0.8c0-0.5,0-1.1,0-1.8c-0.3,0.2-0.4,0.2-0.6,0.4c0-0.2,0-0.4,0.1-0.5c0.2-0.3,0.5-0.5,0.4-0.9
			c0-0.1,0-0.1,0.1-0.2c0.4-0.5,0.3-1.1-0.2-1.4c-0.1-0.1-0.2-0.2-0.3-0.3c0-0.1,0-0.3,0-0.4c0-0.2,0-0.4,0-0.6c0,0,0.1,0,0.1,0
			c0.1,0.1,0.2,0.3,0.3,0.4c0.4-0.4,0.3-0.8-0.1-1.1c-0.2-0.1-0.4-0.5,0-0.6c0.5-0.2,0.3-0.5,0.2-0.9c-0.3,0.2-0.7,0.4-1,0.6
			c0,0,0,0,0,0l0,0c0,0,0-0.1-0.1-0.1c0,0.2,0.1,0.3,0.1,0.5c-0.2,0.1-0.3,0.1-0.5,0.2c0-0.1,0-0.2,0-0.2c0,1.3,0,2.7,0,4
			c0.1-0.7,0.7-0.3,1.1-0.5c0.1,0.1,0.2,0.3,0.2,0.4c0,0.1-0.2,0.2-0.3,0.2c-0.9-0.1-1.1,0.2-1,1c0,0.2,0.1,0.5,0.1,0.7
			c0,0.4-0.2,0.8-0.2,1.1c0,0.4-0.1,0.9,0.4,1.3c0.3,0.2,0.1,1-0.1,1.2c-0.1,0.1-0.2,0.3-0.4,0.6c0.8,0.1,1,0.3,1,0.8
			c-0.2,0.1-0.6,0.1-0.6,0.2c-0.1,0.3,0,0.6,0.1,0.9c-0.1,0.1-0.2,0.3-0.4,0.6c0.3,0.1,0.6,0.2,0.8,0.3c-0.1,0-0.2,0.1-0.2,0.1
			c0.1,0.1,0.1,0.2,0.2,0.4c-0.2,0-0.3,0-0.4,0.1c0.1,0,0.3,0.1,0.4,0.1c-0.1,0.1-0.3,0.2-0.5,0.3c0.3,0,0.5,0.1,0.7,0.1
			c-0.2,0.3-0.4,0.5-0.6,0.5c-0.2,0.1-0.4,0.1-0.4,0.4c0,0.2,0.1,0.4,0.3,0.5c0.3,0.1,0.3,0.2,0.1,0.4c-0.2,0.1-0.3,0.4-0.4,0.6
			c0.2,0.1,0.4,0.1,0.4,0.2c0,0.2-0.1,0.4-0.1,0.5c0.2-0.1,0.5-0.1,0.9-0.2c0,0.1,0.1,0.2,0.1,0.2c-0.1,0.1-0.3,0.3-0.4,0.2
			c-0.4-0.2-0.5,0-0.6,0.3c0.3,0.2,0.6,0.4,0.9,0.6c0,0,0,0.1-0.1,0.1c-0.3,0-0.7-0.1-1-0.1c0,0.5,0.1,0.9,0.1,1.3
			c0,0.3,0,0.4,0.3,0.5c0.6,0.2,0.6,0.5,0.4,0.8c-0.2-0.1-0.4-0.2-0.6-0.3c0,0.1-0.1,0.1-0.1,0.2c0.2,0.2,0.3,0.3,0.5,0.5
			c-0.1,0,0.1,0.5-0.4,0.3c0.2,0.3,0.4,0.6,0.6,1c-0.2,0-0.4,0-0.6,0c0,0.5-0.1,0.9,0,1.3c0.1,0.3,0.4,0.6,0.6,1
			c-0.2,0-0.4-0.1-0.5-0.1c0,0.5,0,0.9,0,1.4c0.1-0.1,0.3-0.1,0.5-0.2h0c-0.1,0-0.1-0.1-0.2-0.1c-0.3-0.2,0-0.3,0.2-0.5
			c0.5-0.8,0.4-0.8,1.2-0.6c0-0.3,0-0.5,0-0.8c-0.4,0.4-0.5,0.2-0.6-0.1c0.2-0.2,0.4-0.4,0.5-0.5c-0.2-0.1-0.3-0.2-0.5-0.4
			c0.2-0.2,0.5-0.5,0.5-0.8c0.1-0.7,0-1.4,0-2.2c-0.1,0-0.2,0-0.3,0c0,0,0.1-0.1,0.1-0.1c-0.1-0.2-0.1-0.4-0.2-0.5
			c-0.1-0.2-0.3-0.3,0-0.5c0.3-0.2,0.3-0.5,0.3-0.9c0-0.4-0.1-0.8-0.1-1.2c0-0.3,0-0.5,0-0.8c-0.2,0.3-0.4,0.5-0.6,0.8
			c-0.2-0.6,0-0.9,0.6-0.9c0-0.2,0-0.4,0-0.6c0-0.2-0.1-0.3-0.3-0.3c-0.1,0-0.1,0.2-0.2,0.3c-0.2-0.1-0.4-0.2-0.5-0.3
			c0.1-0.2,0.1-0.3,0.1-0.4c0.4-0.1,0.6-0.1,1-0.2c-0.1-0.4-0.2-0.8-0.3-1.2c0-0.1,0.1-0.3,0.2-0.5c-0.2,0-0.3,0-0.5-0.1
			c0-0.1,0-0.4-0.1-0.6c0,0,0.1,0,0.1,0c0.1,0.1,0.1,0.2,0.2,0.4c0.1,0,0.1,0,0.2,0c0.1-0.4,0.2-0.8,0.3-1.2c-0.4-0.2-1,0-0.8-0.6
			C111.6,93.8,112,93.7,112.2,93.5z"/>
		<path fill="#A9976D" d="M111.1,83L111.1,83C111.2,83,111.2,83,111.1,83z"/>
		<polygon fill="#A9976D" points="111.1,109.2 111.1,109.2 111.1,109.2 		"/>
		<path fill="#A9976D" d="M110.6,83.2c0,0.1,0,0.1,0,0.2C110.6,83.3,110.6,83.2,110.6,83.2C110.6,83.2,110.6,83.2,110.6,83.2z"/>
		<polygon fill="#A9976D" points="111.1,109.2 111.1,109.2 111.1,109.2 111.1,109.2 111.1,109.2 		"/>
		<path fill="#A9976D" d="M111.1,109.2c-0.1,0-0.1-0.1-0.2-0.1C111,109.1,111,109.1,111.1,109.2L111.1,109.2z"/>
		<polygon fill="#A9976D" points="111.1,109.2 111.1,109.2 111.1,109.2 		"/>
		<path fill="#A9976D" d="M110.6,109.6c0-0.1,0-0.2,0-0.3C110.6,109.4,110.6,109.5,110.6,109.6z"/>
		<rect x="111.1" y="109.2" fill="#A9976D" width="0" height="0"/>
		<polygon fill="#A9976D" points="111.1,109.2 111.1,109.2 111.1,109.2 		"/>
		<path fill="#A9976D" d="M111.8,65c0.4,0,0.6-0.3,0.4-0.5c-0.5-0.6-0.5-1.2,0.1-1.8c-0.5-0.2-0.7-1-0.6-1.8
			c-0.1,0.2-0.2,0.3-0.3,0.4c-0.3-0.2-0.5-0.3-0.8-0.5c0,1.8,0,3.5,0,5.3c0.1-0.2,0.2-0.4,0.4-0.6c0.2,0.3,0.5,0.5,0.7,0.8
			c0,0,0,0.1,0,0.1c-0.2,0-0.4-0.1-0.6-0.1c0,0.1-0.1,0.3,0,0.3c0.3,0.2,0.2,0.4-0.1,0.6c-0.1,0.1-0.2,0.3-0.3,0.4
			c0.2,0,0.3,0,0.5,0c0,0,0,0.1,0,0.1c-0.2,0-0.3,0.1-0.5,0.1c0,0.2,0,0.4,0,0.7c0.3-0.1,0.4-0.2,0.8-0.4c-0.2,0.5-0.3,0.9-0.5,1.4
			c0,0-0.2,0-0.4,0.1c0.1,0.5,0.9,0.7,0.5,1.2c-0.1,0-0.3,0-0.4,0c0,0,0,0.1,0,0.1c0.2,0.1,0.4,0.1,0.6,0.1
			c-0.1,0.2-0.1,0.6-0.2,0.7c-0.5,0.2-0.5,0.6-0.4,1c0.1,0,0.2,0,0.5,0.1c-0.7,0.3-0.6,0.9-0.6,1.3c0.2,0,0.3,0.1,0.6,0.1
			c-0.3,0-0.4,0.1-0.7,0.1c0.1,0.4,0.2,0.8,0.4,1.2c0,0-0.1,0-0.4,0.1c0.2,0.3,0.4,0.5,0.6,0.8c0,0.2,0,0.5-0.5,0.3
			c0,0.2,0,0.4,0,0.6c0,0.1,0.1,0.2,0.1,0.3c0,0.2-0.1,0.5-0.1,0.7c-0.1,0.5,0.1,0.9,0.6,1.1c-0.2,0.3-0.7,0.3-0.5,0.8
			c0.1-0.2,0.2-0.3,0.3-0.4c0.1,0.2,0.2,0.4,0.3,0.5c0.5,0.5,0.5,0.5,0.1,1.1c-0.2-0.1-0.4-0.1-0.6-0.2c0-0.1,0-0.2,0-0.3
			c0,0-0.1,0-0.1,0c0,0.6,0,1.2,0,1.8c0,0,0,0,0.1,0c0.1-0.2,0.1-0.4,0.1-0.4c0.2-0.1,0.4-0.1,0.5-0.1c0.3-0.1,0.5-0.7,0.9-0.3
			c0-0.2-0.1-0.5-0.1-0.6c0.1-0.3,0.1-0.3-0.1-0.5c-0.1-0.1-0.2-0.3-0.2-0.4c0-0.1,0.2-0.2,0.4-0.5c0-0.4-0.2-0.9-0.2-1.5
			c0-0.9,0.1-1.9,0.2-2.8c0-0.6,0-1.3,0-1.9c0-0.7,0-1.4,0-2.1c-0.1,0-0.3,0-0.6-0.1c0.2-0.4,0.4-0.7,0.6-1c-0.2-0.1-0.5,0-0.5-0.2
			c-0.2-0.3,0.1-0.3,0.3-0.4c0.3-0.2,0.3-0.5,0.1-0.8c-0.1-0.1-0.2-0.4-0.1-0.4c0.5-0.6-0.2-1.3,0.3-1.9c0,0-0.2-0.3-0.2-0.4
			C112.4,66.1,112.4,65.5,111.8,65z"/>
		<path fill="#A9976D" d="M39.4,55.1c-0.2,0-0.4,0-0.6,0c0-0.1,0-0.2,0.1-0.3c0.1-0.1,0.3-0.2,0.4-0.3c-0.1-0.1-0.2-0.3-0.4-0.5
			c0,0,0.1-0.1,0.1-0.1c0.1,0,0.3,0.1,0.4,0.1c0-0.3,0-0.7-0.5-0.7c-0.1,0-0.2-0.2-0.2-0.3c0.1,0,0.3,0,0.4,0c0.1,0,0.1,0.1,0.2,0.1
			c-0.1-0.2,0.5-0.8-0.3-0.6c0,0-0.1-0.1-0.1-0.1c0-0.1,0-0.2,0-0.3c0.2,0,0.4,0,0.5,0c0-0.1,0-0.3,0-0.5c-0.3,0-0.5-0.1-0.8-0.1
			c0.5-0.5,0.5-1.1,0-1.6c0.3-0.1,0.5-0.1,0.9-0.2c-0.1-0.2-0.3-0.4-0.4-0.7c-0.1-0.1,0-0.4,0-0.4c0.4,0,0.3-0.4,0.3-0.5
			c-0.1-0.7,0.2-1.5-0.5-2.3c0.3,0,0.4,0,0.6,0.1c-0.1-0.7-0.2-1.4-0.3-2.1c0.1-0.2,0.2-0.5,0.3-0.7c-0.4,0-0.6,0-0.9,0
			c0-0.1,0-0.1-0.1-0.2c0.3-0.2,0.6-0.5,1-0.8c-0.2-0.5,0.3-1.2-0.2-1.8c0.1-0.2,0.1-0.4,0.2-0.7c-0.3,0-0.5,0.1-0.7,0.1
			c0.2-0.3,0.4-0.6,0.6-1c0.1,0.2,0.1,0.3,0.1,0.3c0,0,0.1-0.1,0.1-0.1c-0.2-0.2-0.3-0.4-0.5-0.7C39,38.1,39,38,38.9,37.9
			c0-0.1,0-0.3,0.1-0.4c-0.3,0.1-0.4-0.4-0.8-0.1c-0.4,0.3-0.5,0.5-0.5,0.9c0.1,0.6-0.2,1.2,0.3,1.7c0.1,0.1,0,0.4,0.1,0.7
			c-0.1,0-0.2,0-0.3,0.1c0,0.3,0,0.7,0,0.9c0.2,0.2,0.4,0.3,0.5,0.4c0-0.2,0.1-0.5,0.1-0.7c0.1,0,0.1,0,0.2-0.1
			c0.1,0.2,0.2,0.4,0.3,0.7c0,0.1-0.2,0.2-0.3,0.3c-0.5,0.2-0.5,0.8-0.8,1.2c0,0,0,0.2,0.1,0.2c0.5,0.3,0.2,0.5-0.1,0.8
			c0.1,0.2,0.2,0.4,0.3,0.6c-0.6,0.2-0.2,0.4-0.1,0.6c-0.4,0.6-0.3,0.9,0.4,1.2c-0.4,0.5-0.4,0.5-0.8,0.2c0.1,0.3,0.2,0.6,0.3,1
			c0.4,0.1,0.5,0.4,0.5,0.8c-0.2-0.1-0.5-0.3-0.7-0.4c0,0-0.1,0.1-0.1,0.1c0.2,0.3,0.3,0.5,0.5,0.8c-0.1,0-0.2,0.1-0.3,0.1
			c0.1,0,0.1,0.1,0.1,0c-0.1,0.3-0.1,0.5-0.2,0.8c0.4,0.1,0.7,0.2,1,0.3c0,0.1,0,0.3-0.1,0.4c-0.3-0.1-0.6-0.1-1.1-0.2
			c0.2,0.6,0.3,1.2,0.5,1.8c-0.4-0.1-0.3,0.2-0.3,0.5c0,0.2,0.1,0.4,0,0.5c0,0.2-0.2,0.4-0.3,0.7c0.3,0,0.4,0,0.5,0
			c0.3,0.5-0.1,0.6-0.5,0.7c0.2,0.2,0.4,0.3,0.5,0.4c0.2,0.1,0.2,0.1,0,0.3c0.4,0,0.8,0.1,1.2,0.1C39.5,55.8,39.5,55.4,39.4,55.1z"
			/>
		<polygon fill="#A9976D" points="38.3,55.9 38.3,55.9 38.3,55.9 		"/>
		<rect x="38.3" y="55.9" fill="#A9976D" width="0" height="0"/>
		<rect x="38.3" y="55.9" fill="#A9976D" width="0" height="0"/>
		<polygon fill="#A9976D" points="38.3,55.9 38.3,55.9 38.3,55.9 		"/>
		<path fill="#A9976D" d="M38.3,82.8c-0.2,0.2-0.4,0.4-0.6,0.6c0.4,0.1,0.6,0.2,0.8,0.2C38.4,83.3,38.3,83.1,38.3,82.8z"/>
		<path fill="#A9976D" d="M112.3,40.9c0-0.2,0-0.5,0-0.8C111.6,40.5,112,40.7,112.3,40.9z"/>
		<path fill="#A9976D" d="M110.9,37.9c0-0.2-0.1-0.4-0.2-0.6c0,0-0.1,0-0.1,0c0,0.2-0.1,0.4-0.1,0.8C110.7,38,110.9,37.9,110.9,37.9
			z"/>
	</g>
	<g>
		<rect x="61.9" y="44.8" fill="#A9976D" width="27.1" height="3"/>
		<rect x="61.9" y="38.5" fill="#A9976D" width="26.9" height="2.9"/>
		<path fill="#A9976D" d="M107.6,114.2c0.1-0.3,0.4-0.5,0.4-0.8c0-0.9,0-1.8,0-2.7c0-1.5,0-3.1,0-4.6c0-0.1-0.1-0.3-0.2-0.3
			c-0.3-0.1-0.3-0.1-0.3-0.4c0.1-0.2,0-0.4,0.1-0.6c0,0,0.2-0.1,0.3-0.2c-0.1-0.1-0.3-0.3-0.4-0.5c0.1-0.1,0.2-0.3,0.3-0.5
			c-0.1,0-0.3-0.1-0.4-0.1c0.1-0.4,0.1-0.8,0.2-1.2c0-0.1-0.1-0.2-0.1-0.2c0-0.1,0-0.2,0.1-0.3c0.2-0.1,0.4-0.2,0.7-0.4
			c-0.8-0.4-0.9-0.7-0.4-1.1c0.1-0.1,0.2-0.3,0.3-0.4c-0.1,0-0.2-0.1-0.2-0.1c-0.1,0.1-0.2,0.2-0.3,0.3c0,0-0.1,0-0.1,0
			c0-0.4,0.1-0.8,0.1-1.1c-0.1-0.2-0.2-0.4-0.2-0.5c0.3-0.1,0.5-0.2,0.6-0.3c0.1-0.5,0.2-1.1,0.2-1.6c0-0.4-0.1-0.6-0.5-0.5
			c0,0-0.1,0-0.1-0.1c0.2-0.1,0.3-0.1,0.5-0.2c-0.2-0.1-0.3-0.1-0.4-0.2c0.1-0.2,0.2-0.3,0.3-0.4c0,0.1,0.1,0.2,0.1,0.2
			c0-0.3,0-0.5,0.1-0.8c-0.5-0.3-0.5-0.3-0.1-0.7c0.2-0.2,0.2-1-0.1-1.1c-0.3-0.1-0.3-0.3-0.1-0.5c0.4-0.6,0.4-0.8,0-1.3
			c-0.1-0.2-0.3-0.3,0-0.6c0.3-0.4,0.5-0.9,0.1-1.3c-0.3-0.3-0.6-0.5-0.9-0.8c0.3-0.6,0.7,0,1-0.1c0-0.7,0.1-1.4,0.1-2.1
			c-0.2,0.1-0.3,0.2-0.5,0.2c0-0.1-0.1-0.2-0.1-0.2c0.1-0.4,0.1-0.8,0.3-1.2c0.2-0.3,0.1-0.4-0.1-0.6c-0.2-0.1-0.4-0.3-0.5-0.4
			c0.1-0.2,0.3-0.3,0.4-0.5c0.1,0.1,0.2,0.1,0.4,0.2c0-0.1,0-0.2,0-0.3c-0.2,0-0.3,0-0.5,0c0.4-0.5,0.4-0.6-0.1-0.8
			c0.1-0.3,0.2-0.6,0.3-1c0.1,0,0.1,0.1,0.2,0.1c0.1-1.2,0.1-1.2-0.3-1.3c0,0.4,0,0.7-0.1,1.1c-0.1,0-0.1,0-0.2,0
			c-0.1-0.6-0.2-1.2,0.3-1.7c0.1-0.2,0.2-0.5,0.1-0.6c-0.4-0.4-0.1-0.9-0.2-1.2c0.2-0.1,0.4-0.2,0.4-0.3c0.1-0.7-0.2-1.2-0.8-1.5
			c0.6-0.2,0.7-0.2,0.8-0.7c0.1-0.3,0.2-0.6-0.2-0.8c-0.1,0-0.1-0.3-0.1-0.3c0.3-0.3,0.2-0.3,0.2-0.8c0-0.5,0.1-1,0.1-1.6
			c0-0.4,0.2-0.8-0.2-1.1c0.4-0.6,0.2-1.2,0.1-1.7c-0.5-0.1-0.7-0.3-0.6-0.7c0-0.1,0-0.3-0.1-0.5c0.2,0.1,0.4,0.2,0.5,0.3
			c-0.3,0.3,0.1,0.4,0.1,0.7c0-0.6,0.4-1.3-0.5-1.7c0.2-0.1,0.3-0.1,0.5-0.2c0-0.3,0-0.5,0-0.8c-0.3,0.2-0.6,0.3-0.9,0.4
			c-0.1,0-0.2-0.1-0.3-0.1c0.1-0.1,0.1-0.1,0.2-0.2c0.2-0.2,0.3-0.4,0.5-0.6c0.1,0.1,0.3,0.2,0.4,0.3c0-0.9,0-1.7,0-2.6
			c-0.1-0.1-0.3-0.2-0.4-0.3c0.8-1.2,0.8-1.2-0.3-1.5c0.3-0.2,0.6-0.4,0.7-0.6c0.1-0.3,0-0.7,0-0.9c-0.2,0-0.5,0.1-0.6,0.1
			c-0.3-0.1-0.2-0.3,0-0.5c0.1-0.1,0.1-0.3,0.1-0.5c0-0.6,0-0.6,0.6-0.5c0-0.6,0-1.2,0-1.9c0-0.1,0-0.1-0.1-0.2
			c-0.2-0.3-0.4-0.6,0-0.8c0.1,0,0-0.2,0-0.3c-0.1,0-0.2,0-0.3,0c-0.1,0-0.3,0.1-0.4,0.1c-0.1,0-0.2-0.2-0.3-0.4
			c0.5,0,0.8-0.1,1.1-0.1c0.3-0.6-0.5-1.3,0.1-1.9c-0.3,0-0.5,0-0.7,0c-0.1,0-0.3,0-0.3-0.1c0-0.1,0-0.3,0.1-0.4
			c0.1-0.1,0.3-0.1,0.4-0.1c0.3,0.3,0.3,0,0.5-0.1c-0.1-0.2-0.2-0.4-0.2-0.4c0.1-0.2,0.4-0.5,0.3-0.5c-0.2-0.3-0.5-0.5-0.7-0.8
			c0.1-0.2,0.3-0.4,0.4-0.6c0,0.1,0.1,0.2,0.2,0.4c0.1,0,0.1,0,0.2,0c-0.1-0.8,0.2-1.7-0.2-2.5c0-0.1,0-0.2,0-0.3
			c0.3-0.3,0.2-0.6,0-0.9c-0.1-0.1,0-0.2,0-0.4c0-0.1,0.2-0.2,0.2-0.2c-0.1-0.6,0.3-1.4-0.4-1.9c-0.1-0.1-0.1-0.2-0.1-0.4
			c0.2,0,0.3,0,0.5-0.1c-0.2-0.4-0.3-0.8-0.5-1.2c0.1,0,0.2-0.1,0.4-0.2c0,0.1,0,0.1,0.1,0.2c0,0,0,0,0,0c-0.1-0.9,0.5-1.8-0.3-2.6
			c0.1-0.1,0.3-0.1,0.4-0.2c-0.1-0.2-0.2-0.5-0.2-0.7c0-0.3,0.1-0.6,0.2-0.8c-0.1,0-0.3-0.1-0.4-0.1c0,0,0-0.1,0-0.1
			c0.1,0,0.3-0.1,0.5-0.2c-0.4-0.5,0.4-1.3-0.6-1.6c0-0.3-0.1-0.5-0.1-0.8c0-0.2,0.2-0.3,0.3-0.4c0.1-0.1,0.3-0.3,0.3-0.4
			c0-0.6-0.1-1.3-0.2-1.9c0-0.1,0-0.2,0-0.2c0.4-0.6,0.2-1.2,0-1.9c0-0.1,0-0.2,0-0.3c0.1-0.5,0.2-1,0.2-1.6c-0.3,0-0.4,0-0.5,0
			c0.2-0.2,0.5-0.4,0.5-0.5c-0.1-0.8-0.4-1.6-0.8-2.1c-0.4,0-0.6,0-0.8,0.1c0,0,0-0.1,0-0.1c0.1-0.1,0.2-0.1,0.4-0.2
			c-0.3,0-0.5,0-0.7,0c0-0.2,0-0.3,0-0.5c0.1-0.1,0.3-0.1,0.5-0.2c-0.5-0.1-0.6-0.6-1.1-0.4c-0.1,0-0.2-0.1-0.3-0.1
			c-0.1-0.1-0.2-0.3-0.4-0.4c-0.2-0.1-0.5-0.1-0.8-0.2c0,0.1-0.1,0.2-0.1,0.3c0,0,0,0-0.1,0c0-0.2,0-0.4,0-0.5c0,0-0.1,0-0.1,0
			c-0.1,0.2-0.1,0.3-0.2,0.6c0-0.2,0-0.3,0-0.3c-0.1,0.1-0.2,0.2-0.4,0.2c-0.2,0.1-0.4,0.1-0.5,0.3c-0.3,0.2-0.5,0.4-0.9,0.1
			c0.1-0.1,0.2-0.1,0.3-0.2c-0.2-0.1-0.4-0.1-0.5-0.2c0.1-0.2,0.1-0.3,0.1-0.4c-0.2,0-0.3-0.1-0.5-0.1c0.1,0.6-0.1,0.8-0.6,0.7
			c-0.1-0.2-0.2-0.5-0.3-0.6c-0.7-0.2-1.2,0-1.4,0.9c-0.3-0.3-0.9-0.4-0.6-1c-0.3,0-0.6,0-0.9,0c0,0.1,0,0.2,0,0.3
			c-0.1,0.2-0.2,0.4-0.3,0.6c-0.1-0.1-0.4-0.2-0.4-0.3c0.1-0.5-0.3-0.4-0.6-0.5c-0.3-0.1-0.6-0.1-0.9-0.1c-0.2,0-0.6-0.1-0.7,0.2
			c0,0-0.3,0-0.3-0.1c-0.2-0.2-0.3-0.3-0.4,0.1c-0.1,0.2-0.4,0.3-0.6,0.4c-0.1,0-0.2-0.3-0.4-0.5c-0.3,0.1-0.6,0.3-0.9,0.5
			c-0.1-0.3-0.1-0.4-0.1-0.5c-1.4,0-2.8,0-4.1,0c0,0,0,0,0,0c0,0.1-0.1,0.1-0.1,0.2c-0.4-0.1-0.8-0.2-1.2-0.3c0,0.2,0.1,0.4,0.1,0.7
			c-0.4-0.2-0.6-0.4-0.9-0.5c0,0,0,0.1,0,0.1c-0.6,0-1.2,0-1.8,0c0-0.1,0.1-0.2,0.1-0.2c-0.4,0-0.7,0-1,0c-0.2,0-0.3,0.1-0.5,0
			c-0.5-0.2-1.2,0.1-1.5,0.4c-0.1,0.1-0.4,0.1-0.6,0.2c-0.1-0.3-0.4-0.2-0.6-0.2c0,0.1,0,0.2,0,0.4c0,0-0.1,0-0.1,0
			c-0.1-0.3-0.1-0.6-0.2-0.8c-0.2,0.1-0.5,0.3-0.6,0.2c-0.6-0.4-0.9,0-1.2,0.4c-0.1-0.1-0.3-0.1-0.4-0.2c0.2-0.1,0.2-0.1,0.3-0.1
			c0-0.1,0-0.1,0-0.2c-0.4-0.1-0.7-0.1-1.1-0.2c0,0.1,0,0.1-0.1,0.2c0.1,0.1,0.3,0.1,0.3,0.2c-0.1,0.2-0.3,0.3-0.4,0.4
			c-0.7-0.3-1.2-1-2-0.7c0,0.2,0,0.4,0,0.6c-0.2,0-0.4,0-0.5-0.1c-0.1-0.1-0.1-0.3-0.2-0.6c-0.2,0.2-0.5,0.3-0.6,0.5
			c-0.5,0-0.9,0-1.3,0c-0.1-0.1-0.2-0.3-0.4-0.4c0.1,0.5,0,0.7-0.8,0.8c0.2-0.2,0.3-0.3,0.4-0.6c-0.4,0-0.7-0.2-0.9-0.1
			c-0.6,0.3-1.1,0.4-1.5,0c-0.2,0.2-0.4,0.3-0.6,0.5c-0.1-0.3-0.1-0.5-0.2-0.8c-0.9,0.1-1.7,0.1-2.5,0.2c-0.2,0-0.5,0.1-0.8,0.1
			c0,0-0.2-0.1-0.3-0.2c0,0.1-0.1,0.3-0.1,0.3c-0.4,0-0.7-0.1-1.1-0.1c0,0,0-0.1,0-0.2c-0.3,0-0.6,0-0.8,0c0,0.2-0.1,0.5-0.1,0.7
			c0,0-0.1,0-0.1,0c-0.1-0.2-0.1-0.4-0.1-0.6c-0.3,0-0.6,0-0.9,0c-0.1,0.2-0.2,0.4-0.4,0.6C60,25,59.6,25.1,59.5,25
			c-0.3-0.4-0.5-0.3-0.8-0.1c0,0-0.2-0.1-0.2-0.1c-0.2-0.2-0.4-0.5-0.6-0.6c-0.4-0.1-1-0.2-1.2,0c-0.4,0.4-0.4,0-0.6-0.1
			c-0.5-0.1-0.4,0.6-0.8,0.7c0-0.3,0-0.5,0-0.6c-0.4,0-0.8,0-1.3-0.1c0.1,0.2,0.1,0.4,0.3,0.6c-0.4-0.2-0.9,0-1-0.5
			c0-0.1-0.1-0.1-0.2-0.1c-0.3,0-0.6,0-1.1,0.1c0.2,0.2,0.4,0.2,0.5,0.3c0,0,0,0.1,0,0.1c-0.2,0-0.3,0-0.5,0c0-0.2-0.1-0.4-0.1-0.5
			c0,0-0.1,0-0.1,0c0,0.2,0,0.5,0,0.6c-0.2,0-0.4,0-0.6-0.1c0,0,0,0,0,0.1c0.1,0,0.2,0.1,0.2,0.1c-0.2,0.2-0.3,0.4-0.5,0.6
			c0-0.5,0-0.8,0-1.2c-0.4,0-0.7,0.2-1,0.1c-0.5-0.2-0.8-0.3-1.2,0.1c-0.1,0.1-0.4,0.1-0.5,0c-0.3-0.3-0.5-0.2-0.7,0.2
			c0,0-0.1,0-0.1,0.1c0-0.2-0.1-0.3-0.1-0.5c-0.5,0.1-1.1,0.1-1.7,0.2c0.1,0.2,0.2,0.3,0.4,0.6c-0.6,0-1.1,0-1.7,0
			c0,0.2,0.1,0.3,0.1,0.5c-1.2-0.3-0.5,0.8-0.9,1c0-0.1-0.1-0.2-0.2-0.4c-0.3,0.5-0.6,0.9-0.8,1.4c-0.1,0.2-0.1,0.4,0,0.7
			c0,0.1,0.2,0.3,0.2,0.4c-0.1,0.3-0.3,0.6-0.4,0.9c0.1,0,0.3,0.1,0.3,0.2c-0.1,0.3-0.4,0.6-0.4,0.8c0,0.3,0.1,0.6,0.2,1
			c0,0-0.1,0.1-0.2,0.1c0.2,0.2,0.4,0.4,0.7,0.7c-0.3,0-0.5,0-0.7,0c0,0.1-0.1,0.3,0,0.3c0.3,0.3,0.3,0.5,0,0.8c0,0,0.1,0.2,0.2,0.3
			c0.4,0.2,0.4,0.5,0.2,0.7c-0.2,0.3,0.8,0.4,0,0.8c-0.3,0.1-0.6,0.6-0.2,1.1c0,0.1-0.1,0.2-0.1,0.3c0.1,0,0.2,0.1,0.4,0.1
			c-0.7,0.1-0.4,0.6-0.3,0.7c0.3,0.3,0.5,0.6,0.8,0.9c-1-0.2-1-0.2-0.9,0.9c0.1-0.1,0.1-0.3,0.2-0.5c0.1,0.6,0.4,1.1-0.3,1.4
			c0.2,0.1,0.3,0.3,0.5,0.4c0.3,0.1,0.3,0.3,0.3,0.5c-0.2,0.3,0,0.9-0.6,1c-0.1,0-0.1,0.1-0.1,0.2c0.1,0.7-0.3,1.5,0.2,2.1
			c0.1,0.2,0.1,0.5,0.1,0.7c-0.1,0-0.2,0-0.3,0.1c0,0.3,0,0.7,0,1c0.2,0.2,0.4,0.3,0.5,0.4c0-0.2,0.1-0.4,0.1-0.7
			c0.1,0,0.1,0,0.2-0.1c0.1,0.2,0.2,0.4,0.3,0.7c0,0.1-0.2,0.2-0.3,0.3c-0.5,0.2-0.5,0.8-0.8,1.2c0,0,0,0.2,0.1,0.2
			c0.5,0.3,0.3,0.5-0.1,0.8c0.1,0.2,0.2,0.4,0.3,0.6c-0.6,0.2-0.3,0.4,0,0.6c-0.4,0.6-0.3,0.9,0.4,1.2c-0.4,0.5-0.4,0.5-0.8,0.1
			c0.1,0.3,0.1,0.7,0.2,0.7c0.3,0.1,0.1,0.2,0.1,0.4c-0.1,0.4-0.3,0.8,0,1.1c0.1,0.1,0.2,0.1,0.3,0.2c-0.2,0.1-0.3,0.1-0.4,0.2
			c0.1,0,0.1,0.1,0.1,0.1c-0.1,0.2-0.3,0.6-0.3,0.6c0.3,0.2,0.6,0.4,1,0.6c-0.2,0.8-0.8-0.2-1.1,0.1c0.1,0.5,0.3,1.1,0.4,1.7
			c-0.3,0-0.4,0.2-0.2,0.5c0.1,0.2,0.1,0.3,0,0.5c-0.1,0.2-0.2,0.5-0.2,0.7c0.1,0,0.1,0,0.2,0c0.2,0.2,0.3,0.3,0.6,0.6
			c-0.3,0.1-0.5,0.2-0.8,0.3c0.4,0.2,0.6,0.2,0.8,0.4c0.3,0.2-0.1,0.4-0.6,0.4c0,0.4,0.2,0.6,0.7,0.7c0,0.1,0,0.3-0.1,0.4
			c-0.2-0.1-0.4-0.2-0.7-0.4c0,0.2,0,0.2,0,0.3c0.1,0.4-0.3,0.9,0.3,1.2c-0.1,0.1-0.1,0.2-0.2,0.3c0,0.4-0.1,0.9,0,1.2
			c0.1,0.3,0.2,0.3-0.2,0.4c0.2,0.3-0.1,0.9,0.5,0.9c0.1-0.2,0.2-0.3,0.2-0.4c-0.1-0.1-0.2-0.3-0.4-0.5c0.5-0.1,0.6,0.2,0.6,0.5
			c0.1,0.4-0.4,0.9-1,1c0.1,0.3,0.2,0.6,0.2,0.9c-0.4,0.9-0.1,1.9-0.2,2.9c-0.1,1-0.1,2.1,0,3c0.2,1-0.3,1.9,0,2.9
			c0.1-0.1,0.1-0.2,0.2-0.3c0-0.1,0-0.1,0-0.2c0.3,0.1,0.6,0.2,0.9,0.2c0,0.3-0.5,0.6-1.1,0.8c0.1,0.3-0.2,0.8,0.2,0.9
			c-0.1,0.4-0.2,0.7-0.2,1.1c0,0.1,0.4,0.2,0.7,0.3c-0.2,0.1-0.5,0.2-0.7,0.3c0,0.5,0,1.1,0.5,1.3c-0.1,0.2-0.2,0.3-0.3,0.5
			c0,0.1,0.1,0.3,0,0.4c0,0.2-0.2,0.3-0.2,0.5c0.1,1.1-0.2,2.2,0.4,3.2c-0.2,0-0.3,0-0.4,0c0,0.7,0,1.4,0,1.9
			c0.3,0.1,0.5,0.1,0.7,0.2c0.2,0.1,0.4,0.4,0.4,0.6c0,0.2-0.1,0.6-0.2,0.7c-0.2,0.1-0.6,0.1-0.9,0.1c0,0.5,0,1,0,1.5
			c0,0.1,0,0.2,0.1,0.2c0.4,0.1,0.2,0.3,0.2,0.5c0,0.1-0.1,0.2,0,0.2c0.5,0.2,0.1,0.5,0,0.7c-0.2,0.3-0.2,0.6,0,1
			c0.2,0.4,0.5,0.9-0.1,1.2c0,0,0,0.1,0,0.1c0.2,0.1,0.4,0.2,0.6,0.3c-0.3,0.4-0.9,0.5-0.3,1c-0.6,0.3-0.6,0.7,0,1.1
			c0.2,0.1,0.3,0.3,0.5,0.5c-0.2,0.1-0.5,0.1-0.7,0.2c0,0-0.1,0-0.2,0c0,0.3,0,0.6,0.1,0.9c0.2-0.2,0.2-0.2,0.3-0.3
			c0.1,0,0.1,0.1,0.2,0.1c-0.1,0.2-0.2,0.4-0.3,0.6c-0.1,0.3-0.2,0.6-0.2,0.8c0.1,0.2,0.2,0.4,0,0.6c-0.1,0.1,0,0.2,0,0.3
			c0.6,0.1,0.6,0.1,0.3,0.5c0,0.1,0,0.2,0,0.3c0,0.2-0.1,0.4-0.1,0.5c0,0.2,0.1,0.5,0.2,0.7c0,0,0.1,0,0.1,0c0-0.1,0-0.3,0.1-0.5
			c0.2,0,0.3,0,0.5,0.1c-0.2,0.4-0.4,0.7-0.6,1.1c-0.1,0-0.2,0.1-0.4,0.1c0.1,0.5,0.2,0.9,0.3,1.3c0,0.1,0.2,0.1,0.2,0.1
			c0.1,0,0.3,0,0.5,0c-0.4,0.4-0.6,0.7-0.8,0.9c0,0.3-0.1,0.5-0.1,0.7c0,0.2-0.1,0.6,0.1,0.7c0.5,0.4,0.1,0.5-0.3,0.6
			c0.2,0.3,0.4,0.5,0.5,0.8c-0.5,0.3-0.5,0.4,0,1c0.2-0.6,0.4-0.3,0.7,0.1c-0.2,0-0.4,0-0.6,0.1c-0.2,0.1-0.3,0.1-0.4,0.3
			c-0.1,0.1,0,0.3,0,0.4c0,0.1,0.1,0.2,0.1,0.3c-0.4,0.4-0.1,0.9-0.1,1.2c0.2,0,0.5,0,0.5,0.1c0.1,0.3,0.1,0.6,0.2,0.8
			c0,0-0.1,0-0.1,0c-0.2-0.2-0.3-0.5-0.5-0.7c0,0,0,0-0.1,0.1c0,0.1,0,0.3,0.1,0.4c0,0,0.1-0.1,0.2-0.2c0,0,0.1,0.1,0.1,0.1
			c-0.1,0.1-0.3,0.2-0.4,0.3c0,0.7,0,1.4,0,2c0.5-0.4,0.8,0,1.1,0.2c0,0.6-0.5,0.4-0.8,0.6c-0.1-0.1-0.1-0.2-0.2-0.3
			c-0.1,0.2-0.2,0.4-0.2,0.7c0.2,0.1,0.5,0.1,0.8,0.2c0,0,0,0.2,0,0.4c-0.1-0.1-0.2-0.1-0.2-0.2c0.1,0.3,0.2,0.5,0.3,0.9
			c-0.4-0.2-0.6-0.3-0.8-0.4c-0.1,0.5-0.1,0.6,0.1,0.8c-0.3,0.7-0.1,1.3-0.2,2c0.1-0.1,0.2-0.1,0.3-0.2c0.1,0,0.1,0,0.2,0
			c-0.1,0.7-0.3,1.4-0.3,2.1c0,0.6,0.2,1.2,0.5,1.7c0.1,0.2,0.4,0.3,0.4,0.7c0,0.2,0.2,0.4,0.5,0.2c0,0,0.2,0,0.2,0
			c0.2,0.1,0.5,0.1,0.7,0.2c-0.1,0.6-0.1,0.6-0.3,0.4c0,0-0.1,0.1-0.1,0.1c0.1,0.1,0.2,0.2,0.3,0.3c0.4,0.1,0.9,0.3,1.4,0.2
			c0.5,0,0.7,0.1,0.7,0.7c0.5-0.2,0.9-0.3,1.2-0.5c0.3-0.3,0.5-0.2,0.7,0c0.5,0.5,0.7,0.5,1.4,0.3c0.2-0.1,0.4,0,0.4,0
			c0.2-0.2,0.4-0.5,0.6-0.6c0.2,0,0.6,0.2,0.6,0.4c0.2,0.5,0.5,0.4,0.8,0.3c0.1,0,0.2-0.2,0.3-0.2c-0.3-0.2-0.5-0.4-0.8-0.6
			c0.1,0,0.2-0.1,0.3-0.1c0.3,0.2,0.6,0.3,0.9,0.6c0.5,0.5,1.3,0.5,1.7,0c0,0,0.1,0,0.1,0c0,0.1,0,0.2,0,0.4
			c0.2-0.2,0.4-0.3,0.6-0.5c0,0,0.1,0,0.2,0.1c-0.1,0.1-0.1,0.2-0.2,0.3c0.2,0,0.4,0,0.7,0c-0.1-0.1-0.1-0.3-0.2-0.3
			c0.2-0.2,0.3-0.4,0.5-0.5c0.1-0.1,0.2-0.1,0.3-0.2c0,0.1,0.1,0.2,0.1,0.3c0,0.2,0.1,0.4,0.1,0.6c0,0,0.1,0,0.1,0
			c0.1-0.2,0.1-0.3,0.1-0.5c0.3,0,0.6,0,0.9,0.1c0,0,0,0.1,0,0.1c-0.2,0-0.3,0-0.5,0.1c0,0.1,0,0.1,0,0.2c0.5,0,1.1,0,1.6,0
			c0,0,0,0,0,0.1c-0.1,0-0.1,0-0.2,0.1c0,0,0,0,0,0.1c0.1,0,0.2-0.1,0.3-0.1c-0.2-0.2-0.3-0.4-0.6-0.7c0.3,0,0.5,0,0.6,0
			c0.2,0.6,0.6,0.9,1.2,0.8c0.1,0,0.1-0.2,0.2-0.3c-0.3,0-0.4,0-0.6,0c0-0.2,0.1-0.4,0.1-0.5c0.4-0.4,0.3,0.9,0.7,0.3
			c0.2,0.2,0.5,0.4,0.7,0.6c0.1-0.1,0.1-0.2,0.2-0.4c0,0,0.1,0.1,0.1,0.1c0.4,0.1,0.7,0.2,1.1,0.3c0.1-0.5,0.9,0,1-0.7
			c0.1,0,0.2,0.1,0.2,0.1c0.1,0.1,0.1,0.2,0.1,0.3c0.4-0.1,0.7-0.1,1.1-0.2c0,0.1,0,0.1,0,0.2c-0.1,0-0.2,0.1-0.4,0.2
			c0.5-0.1,0.8-0.1,1.1-0.2c0,0.1,0,0.2,0,0.3c0.7,0,1.4,0,2,0c0.3-0.3,0.4-0.4,0.6-0.6c0,0,0.2,0,0.3,0c-0.1,0.1-0.1,0.2-0.3,0.5
			c0.4,0,0.7,0,1,0c0,0,0.1,0,0.1,0c0.3,0.2,0.4,0,0.6-0.2c0.1-0.1,0.3-0.2,0.4-0.2c0,0,0,0.1,0.1,0.1c-0.1,0.1-0.1,0.2-0.2,0.3
			c0.1,0,0.2,0.1,0.3,0.1c0.1,0,0.2,0,0.3-0.1c0.3-0.2,0.6-0.4,0.9-0.6c0,0,0.1,0,0.1,0c-0.1,0.2-0.2,0.4-0.3,0.6c0,0,0,0.1,0.1,0.1
			c0.3-0.1,0.7-0.3,1-0.4c0.2-0.1,0.4-0.1,0.6-0.1c0.2,0,0.3,0,0.5,0c0.1,0,0.2-0.1,0.3-0.1c0.3,0.3,0.6,0.3,1,0.3
			c0.3,0,0.6,0.2,0.9,0.2c0.5,0,0.9-0.1,1.4-0.1c0-0.2,0-0.4-0.1-0.6c0.1-0.1,0.2-0.1,0.4-0.3c0.1,0.3,0.1,0.6,0.1,0.9
			c0.4,0,0.7,0,1,0c0-0.2,0-0.4,0-0.7c0.3,0.1,0.4,0.1,0.6,0.2c0,0.2,0,0.4,0,0.7c0.3-0.2,0.5-0.3,0.7-0.4c0,0,0.1,0.1,0.1,0.2
			c0.3-0.2,0.5-0.3,0.8,0c0.1,0.1,0.2,0.2,0.3,0.2c0.3,0,0.6,0,0.9,0c0-0.2,0.1-0.3,0.1-0.5c0,0,0,0,0.1,0c0,0.1,0,0.2,0.1,0.3
			c0.1-0.1,0.2-0.3,0.3-0.4c0.2,0.5,0.7,0.7,1,0.4c0.1-0.1,0.3-0.2,0.5-0.3c0,0,0,0,0,0.1c0.2-0.2,0.4-0.4,0.8-0.7
			c0,0.9,0.3,1.2,0.9,1.1c0.4-0.1,0.8-0.1,1.2-0.1c0.4,0,0.9,0.1,1.4,0.2c-0.1-0.2-0.1-0.3-0.2-0.5c0.3-0.1,0.6-0.3,0.8-0.2
			c0.2,0,0.4,0.3,0.5,0.5c0.1,0,0.2,0,0.3-0.1c0,0,0,0,0,0.1c1.2,0.1,2.5,0.1,3.7,0.2c0-0.2,0-0.4,0-0.6c0,0.1-0.1,0.2-0.1,0.3
			c0,0,0,0-0.1,0c0-0.2,0-0.4,0-0.6c0.4,0.1,0.7,0.2,1,0.3c0,0,0,0.1,0,0.1c-0.2,0-0.3,0.1-0.5,0.1c0.2,0,0.3,0,0.5,0.1
			c-0.1,0.1-0.2,0.2-0.2,0.2c0,0.1,0,0.1,0,0.2c0.7,0,1.4,0,2,0c0.3,0,0.6-0.2,0.9-0.2c0.2,0,0.4,0.2,0.6,0.2c0.7,0,1.3,0,1.9,0
			c0-0.2,0.1-0.4,0.1-0.5c0.4,0,0.6,0.1,0.9,0.1c0,0.1,0.1,0.3,0.1,0.4c0.2,0,0.4,0,0.6,0c0.1,0,0.2-0.1,0.3-0.1
			c0.1-0.1,0.2-0.2,0.3-0.2c0.1,0.1,0.2,0.3,0.3,0.4c0.4-0.1,0.9,0,1.3-0.5c0.1-0.1,0.4-0.2,0.6-0.3c0.4-0.1,0.9-0.2,1.3-0.4
			c0.4-0.2,0.7-0.5,0.2-0.9c0.2-0.1,0.3-0.3,0.4-0.3c0.7,0,0.8-0.6,0.9-1c0.2-0.6,0.3-1.3,0.2-2c0-0.4,0.1-0.7,0.1-1.1
			c0-0.2,0-0.3,0-0.5c-0.5,0-0.5,0-0.7-0.7c0.1,0,0.3-0.1,0.4-0.1c0.1,0.1,0.2,0.2,0.3,0.4c0-0.2,0.1-0.3,0-0.4
			c-0.1-0.2-0.2-0.4-0.2-0.6c-0.4,0.1-0.6,0.2-0.8,0.3c0.1-0.3-0.2-0.7,0.3-0.7c0.1,0,0.3,0.2,0.5,0.4c0-0.1,0-0.2,0.2-0.4
			c0.1-0.1,0-0.3-0.1-0.4c-0.1-0.1-0.2-0.2-0.4-0.3c0,0-0.1,0-0.2,0c-0.2,0-0.4-0.1-0.6-0.2c0.2,0,0.4-0.1,0.5-0.1
			c0.1,0,0.2,0,0.3,0c0.2-0.1,0.4-0.2,0.4-0.3c0-0.4,0-0.7,0-1.2c-0.1,0.6-0.4,0.2-0.7,0.2c-0.1,0-0.3-0.1-0.4-0.1
			c0.1-0.1,0.2-0.3,0.2-0.3C107.2,114,107.4,114.1,107.6,114.2z M107.7,86.8c-0.1,0.4-0.3,0.7-0.4,1c-0.1,0-0.1,0-0.2,0
			c0-0.2-0.1-0.5-0.1-0.8C107.2,86.9,107.4,86.9,107.7,86.8z M107.4,77c0.1,0.2,0.2,0.5,0.3,0.7c-0.2-0.1-0.5,0.5-0.8,0.1
			C107,77.6,107.1,77.4,107.4,77z M43.1,69.5c0,0.2-0.1,0.4-0.1,0.6c-0.3-0.4-0.5-0.7-0.7-1.1c0.3-0.3,0.6-0.1,0.9,0
			C43.1,69.2,43.1,69.3,43.1,69.5z M89.2,24.5c0.7-0.1,0.5,0.5,0.8,0.9C89.3,25.3,89.1,25,89.2,24.5z M52.2,58
			c0-1.5,0.3-2.5,0.9-3.1s1.6-0.9,3.1-0.9h2.6v-22h-1.5c-0.8,0-1.3,0.2-1.7,0.6c-0.4,0.4-0.6,1-0.6,1.9v13.4c0,1.9-0.5,2.8-1.4,2.8
			c-0.9,0-1.4-0.9-1.4-2.8V33.2c0-1.4,0.3-2.5,0.9-3.1c0.6-0.6,1.6-0.9,3.1-0.9h14.4l1.9-1.9c1-1,1.9-1.5,2.8-1.5
			c0.9,0,1.9,0.5,2.8,1.5l2,1.9h14.5c1.4,0,2.4,0.3,3,0.9c0.7,0.6,1,1.6,1,3.1v14.9c0,1.9-0.5,2.8-1.4,2.8c-1,0-1.4-0.9-1.4-2.8
			V34.4c0-0.8-0.2-1.4-0.6-1.9c-0.3-0.4-0.9-0.6-1.6-0.6H92v22h2.6c1.4,0,2.4,0.3,3,0.9c0.7,0.7,1,1.7,1,3.1v11.6
			c0,1.9-0.5,2.8-1.4,2.8c-1,0-1.4-0.9-1.4-2.8v-9.9c0-0.8-0.2-1.4-0.6-1.8c-0.4-0.4-1-0.6-1.9-0.6H57.5c-0.8,0-1.4,0.2-1.9,0.6
			c-0.4,0.4-0.6,1-0.6,1.8V70c0,1.9-0.5,2.8-1.4,2.8c-0.9,0-1.4-0.9-1.4-2.8V58z M54.2,75.8h12.7c2,0,2.9,0.6,2.9,1.7
			c0,1.1-1,1.6-2.9,1.6H54.2c-2,0-2.9-0.5-2.9-1.6C51.3,76.3,52.2,75.8,54.2,75.8z M67.4,122.6H56.2c-1.4,0-2.5-0.3-3.1-1
			c-0.6-0.6-0.9-1.6-0.9-3v-18.5c0-2,0.5-3,1.4-3c0.9,0,1.4,1,1.4,3v17.1c0,0.9,0.2,1.5,0.6,1.9c0.4,0.4,1,0.6,1.9,0.6h1.9V92.7
			h-5.5c-2,0-2.9-0.5-2.9-1.4s1-1.4,2.9-1.4h10.4c0.8,0,1.4-0.1,1.9-0.3s0.6-0.5,0.6-0.8v-1.6c0-0.3-0.2-0.6-0.6-0.8s-1-0.3-1.9-0.3
			H54c-2,0-2.9-0.5-2.9-1.6c0-1.1,1-1.6,2.9-1.6h11.6c1.4,0,2.5,0.3,3.1,0.9c0.6,0.6,0.9,1.6,0.9,3.1v1.9c0,1.4-0.3,2.4-0.9,3
			c-0.6,0.7-1.6,1-3.1,1h-2.9v17.7h1.6c0.8,0,1.4-0.2,1.9-0.6c0.4-0.4,0.6-1,0.6-1.9v-8c0-2,0.5-3,1.4-3c0.9,0,1.4,1,1.4,3v9.3
			c0,1.4-0.3,2.4-0.9,3c-0.6,0.7-1.6,1-3.1,1h-2.9v6.3h4.7c2,0,2.9,0.5,2.9,1.4C70.3,122.1,69.4,122.6,67.4,122.6z M62.9,72.5
			c-1.4,0-2.5-0.3-3.1-1c-0.6-0.6-0.9-1.6-0.9-3v-7.8c0-1.3,0.5-2,1.4-2c0.9,0,1.3,0.7,1.3,2v0.1h28v-1.1c0-0.6,0.4-0.9,1.3-0.9
			c0.9,0,1.4,0.3,1.4,0.9v8.8c0,1.4-0.3,2.4-1,3c-0.7,0.7-1.7,1-3.1,1H62.9z M87.1,125c-0.2,0-0.4,0.1-0.5,0.1
			c-0.1-0.1-0.1-0.4-0.2-0.6c0.1,0,0.2-0.1,0.3-0.1c0.2,0.1,0.4,0.2,0.7,0.4C87.2,124.9,87.1,125,87.1,125z M98.6,120.1
			c0,1.9-0.5,2.8-1.4,2.8c-1,0-1.4-0.9-1.4-2.8v-6.2c0-0.8-0.1-1.4-0.3-1.8c-0.2-0.4-0.5-0.6-0.9-0.6h-1.7c-0.4,0-0.7,0.2-0.9,0.6
			c-0.2,0.4-0.3,1-0.3,1.8v4.6c0,1.4-0.3,2.4-1,3c-0.7,0.7-1.7,1-3.1,1h-2.5c-1.4,0-2.5-0.3-3.1-1c-0.6-0.6-0.9-1.6-0.9-3v-4.6
			c0-0.8-0.1-1.4-0.4-1.8c-0.2-0.4-0.5-0.6-0.9-0.6h-1.9c-0.4,0-0.8,0.2-1,0.6c-0.2,0.3-0.3,0.9-0.3,1.8v6.1c0,1.9-0.5,2.8-1.4,2.8
			c-1,0-1.4-0.9-1.4-2.8v-7.7c0-1.4,0.3-2.5,0.9-3.1s1.6-0.9,3.1-0.9h2c1.4,0,2.4,0.3,3.1,0.9c0.7,0.6,1,1.6,1,3.1v4.9
			c0,0.9,0.1,1.5,0.3,1.9c0.2,0.4,0.5,0.6,1,0.6h1.9c0.5,0,0.8-0.2,1-0.6c0.2-0.4,0.3-1,0.3-1.9v-4.9c0-1.4,0.3-2.5,0.9-3.1
			s1.7-0.9,3.1-0.9h2.3c1.4,0,2.4,0.3,3,0.9c0.7,0.6,1,1.6,1,3.1V120.1z M98.6,100.5c0,1.4-0.3,2.4-1,3c-0.6,0.7-1.6,1-3,1H77.8
			c-1.4,0-2.5-0.3-3.1-1c-0.6-0.6-0.9-1.6-0.9-3v-2c0-1.5,0.3-2.5,0.9-3.1c0.6-0.6,1.6-0.9,3.1-0.9h16.8c1.4,0,2.4,0.3,3,0.9
			c0.7,0.7,1,1.7,1,3.1V100.5z M96.4,91.5H76.2c-2,0-2.9-0.5-2.9-1.6c0-1.1,1-1.6,2.9-1.6h8.5v-3.5h-6.8c-1.4,0-2.5-0.3-3.1-0.9
			s-0.9-1.6-0.9-3.1V78c0-2,0.5-3,1.4-3c1,0,1.4,1,1.4,3v2c0,0.7,0.2,1.2,0.6,1.5c0.4,0.3,1,0.5,1.8,0.5h5.6v-4.2c0-2,0.5-3,1.6-3
			c1.1,0,1.6,1,1.6,3V82h5.4c0.8,0,1.4-0.2,1.9-0.6c0.4-0.4,0.6-0.9,0.6-1.7v-2.3c0-1.9,0.5-2.9,1.4-2.9c1,0,1.4,1,1.4,2.9v3.2
			c0,1.4-0.3,2.4-1,3c-0.6,0.7-1.6,1-3,1h-6.7v3.5h8.5c1.9,0,2.9,0.5,2.9,1.6C99.2,91,98.3,91.5,96.4,91.5z M103.2,124.4
			c-0.1,0.1-0.2,0.2-0.3,0.1c-0.4-0.1-0.9-0.2-1.3-0.2c0-0.1,0-0.2,0.1-0.3c0.3,0.1,0.5,0.2,0.8,0.2c0.1,0,0.3,0,0.4,0
			c0.1,0,0.2-0.1,0.3-0.1C103.2,124.1,103.3,124.3,103.2,124.4z M106.6,33.1c0.4,0.1,0.7,0.2,1,0.3c-0.2,0.3-0.3,0.5-0.5,0.7
			C106.9,33.8,106.8,33.5,106.6,33.1z M107.4,89.3c0,0.4,0,0.8-0.1,1.1c-0.1,0-0.1,0-0.2,0c-0.1-0.4-0.1-0.8-0.2-1.2
			C107.1,89.3,107.2,89.3,107.4,89.3z"/>
		<path fill="#A9976D" d="M107.8,116.9C107.8,116.9,107.8,116.9,107.8,116.9C107.8,116.9,107.8,116.9,107.8,116.9
			C107.8,116.9,107.8,116.9,107.8,116.9z"/>
		<rect x="61.9" y="50.7" fill="#A9976D" width="27.1" height="3.3"/>
		<path fill="#A9976D" d="M87.2,24.2c0.1,0,0.1,0,0.2,0C87.3,24.2,87.3,24.2,87.2,24.2C87.2,24.2,87.2,24.2,87.2,24.2z"/>
		<path fill="#A9976D" d="M89.4,67.1v-3H61.5v3c0,0.8,0.2,1.4,0.6,1.9c0.4,0.4,1,0.7,1.8,0.7h23c0.8,0,1.4-0.2,1.9-0.7
			C89.2,68.6,89.4,67.9,89.4,67.1z"/>
		<rect x="61.8" y="32.1" fill="#A9976D" width="27.1" height="3.1"/>
		<path fill="#A9976D" d="M95.1,97.7c-0.4-0.2-1-0.3-1.9-0.3H79.1c-0.8,0-1.4,0.1-1.8,0.3c-0.4,0.2-0.6,0.4-0.6,0.8v1.5
			c0,0.4,0.2,0.7,0.6,0.9c0.4,0.2,1,0.3,1.8,0.3h14.2c0.8,0,1.4-0.1,1.9-0.3c0.4-0.2,0.6-0.5,0.6-0.9v-1.5
			C95.7,98.1,95.5,97.9,95.1,97.7z"/>
		<path fill="#A9976D" d="M108,66.2c0,0-0.1-0.1-0.1-0.1c0,0.1,0,0.1,0,0.2C107.9,66.2,108,66.2,108,66.2z"/>
	</g>
</g>
</svg>
